<svg width="199" height="36" viewBox="0 0 199 36" fill="none" xmlns="http://www.w3.org/2000/svg">
<path d="M12.96 28.352C9.26933 28.352 6.42133 27.2853 4.416 25.152C2.45333 23.1253 1.472 20.3093 1.472 16.704V16.448C1.472 12.992 2.56 10.176 4.736 8C6.848 5.84533 9.54667 4.768 12.832 4.768C15.6907 4.768 18.0053 5.45067 19.776 6.816C21.6533 8.288 22.72 10.3787 22.976 13.088H17.664C17.28 10.272 15.68 8.864 12.864 8.864C11.0507 8.864 9.61067 9.536 8.544 10.88C7.47733 12.2027 6.944 14.048 6.944 16.416V16.672C6.944 19.0613 7.456 20.9067 8.48 22.208C9.52533 23.5093 10.9973 24.16 12.896 24.16C14.3467 24.16 15.5307 23.7973 16.448 23.072C17.3653 22.3253 17.9307 21.2267 18.144 19.776H23.232C22.9547 22.5707 21.8773 24.704 20 26.176C18.1867 27.6267 15.84 28.352 12.96 28.352ZM26.5205 3.68H31.1285V28H26.5205V3.68ZM39.8643 8.288C39.3523 8.75733 38.7229 8.992 37.9763 8.992C37.2296 8.992 36.6003 8.75733 36.0883 8.288C35.5976 7.79733 35.3523 7.18933 35.3523 6.464C35.3523 5.73867 35.5976 5.14133 36.0883 4.672C36.6003 4.18133 37.2296 3.936 37.9763 3.936C38.7229 3.936 39.3523 4.18133 39.8643 4.672C40.3763 5.14133 40.6323 5.73867 40.6323 6.464C40.6323 7.18933 40.3763 7.79733 39.8643 8.288ZM35.7043 11.264H40.3123V28H35.7043V11.264ZM52.3753 28.352C49.8579 28.352 47.8099 27.616 46.2313 26.144C44.5886 24.608 43.7673 22.5067 43.7673 19.84V19.584C43.7673 16.96 44.6099 14.8267 46.2953 13.184C47.8953 11.648 49.9326 10.88 52.4073 10.88C54.5619 10.88 56.3113 11.36 57.6553 12.32C59.1913 13.4293 60.0659 15.1147 60.2793 17.376H55.8953C55.6179 15.4773 54.4873 14.528 52.5033 14.528C51.2659 14.528 50.2846 14.9653 49.5593 15.84C48.8553 16.7147 48.5033 17.9413 48.5033 19.52V19.776C48.5033 21.44 48.8553 22.7093 49.5593 23.584C50.2846 24.4373 51.2979 24.864 52.5993 24.864C53.5806 24.864 54.3913 24.5867 55.0313 24.032C55.6926 23.4773 56.0766 22.6773 56.1833 21.632H60.3753C60.2473 23.7013 59.4899 25.312 58.1033 26.464C56.6313 27.7227 54.7219 28.352 52.3753 28.352ZM63.5063 3.68H68.1463V18.336L73.5223 11.264H78.4503L72.3703 18.88L78.9303 28H73.6823L68.1463 20.096V28H63.5063V3.68ZM85.7905 8.288C85.2785 8.75733 84.6492 8.992 83.9025 8.992C83.1558 8.992 82.5265 8.75733 82.0145 8.288C81.5238 7.79733 81.2785 7.18933 81.2785 6.464C81.2785 5.73867 81.5238 5.14133 82.0145 4.672C82.5265 4.18133 83.1558 3.936 83.9025 3.936C84.6492 3.936 85.2785 4.18133 85.7905 4.672C86.3025 5.14133 86.5585 5.73867 86.5585 6.464C86.5585 7.18933 86.3025 7.79733 85.7905 8.288ZM81.6305 11.264H86.2385V28H81.6305V11.264ZM96.7975 28.352C94.5362 28.352 92.7762 27.872 91.5175 26.912C90.2588 25.952 89.5868 24.5653 89.5015 22.752H93.8215C93.9495 23.5627 94.2268 24.16 94.6535 24.544C95.0802 24.928 95.7842 25.12 96.7655 25.12C98.5148 25.12 99.3895 24.512 99.3895 23.296C99.3895 22.72 99.1335 22.2933 98.6215 22.016C98.1095 21.7173 97.2348 21.4827 95.9975 21.312C93.7362 20.9493 92.1575 20.4053 91.2615 19.68C90.3015 18.9333 89.8215 17.7387 89.8215 16.096C89.8215 14.4533 90.5042 13.1413 91.8695 12.16C93.0428 11.3067 94.5682 10.88 96.4455 10.88C98.3868 10.88 99.9548 11.264 101.15 12.032C102.408 12.8853 103.144 14.2293 103.358 16.064H99.1015C98.9735 15.36 98.7068 14.848 98.3015 14.528C97.8962 14.208 97.2882 14.048 96.4775 14.048C95.7308 14.048 95.1442 14.208 94.7175 14.528C94.3122 14.848 94.1095 15.264 94.1095 15.776C94.1095 16.3093 94.3335 16.704 94.7815 16.96C95.2508 17.216 96.1042 17.4293 97.3415 17.6C99.5388 17.8987 101.15 18.4 102.174 19.104C103.283 19.936 103.838 21.184 103.838 22.848C103.838 24.64 103.219 26.0053 101.982 26.944C100.766 27.8827 99.0375 28.352 96.7975 28.352ZM114.707 28.352C112.104 28.352 110.024 27.5947 108.467 26.08C106.803 24.544 105.971 22.464 105.971 19.84V19.584C105.971 16.9813 106.803 14.8693 108.467 13.248C110.088 11.6693 112.126 10.88 114.579 10.88C116.904 10.88 118.803 11.552 120.275 12.896C121.918 14.3893 122.739 16.5547 122.739 19.392V20.672H110.675C110.739 22.08 111.123 23.168 111.827 23.936C112.552 24.6827 113.555 25.056 114.835 25.056C116.84 25.056 118.003 24.2773 118.323 22.72H122.707C122.43 24.5333 121.598 25.9307 120.211 26.912C118.846 27.872 117.011 28.352 114.707 28.352ZM118.227 17.824C118.078 15.328 116.862 14.08 114.579 14.08C113.534 14.08 112.67 14.4107 111.987 15.072C111.326 15.712 110.91 16.6293 110.739 17.824H118.227Z" fill="#171715"/>
<path opacity="0.6" d="M135.104 7.42H137.372C138.26 7.42 138.968 7.616 139.496 8.008C140.032 8.4 140.3 9.008 140.3 9.832V9.88C140.3 10.728 140.036 11.348 139.508 11.74C138.988 12.132 138.28 12.328 137.384 12.328H135.776V16H135.104V7.42ZM137.432 11.788C138.896 11.788 139.628 11.152 139.628 9.88V9.832C139.628 9.168 139.436 8.692 139.052 8.404C138.668 8.116 138.12 7.972 137.408 7.972H135.776V11.788H137.432ZM144.078 16.096C143.174 16.096 142.45 15.804 141.906 15.22C141.37 14.636 141.102 13.872 141.102 12.928V12.832C141.102 11.888 141.37 11.12 141.906 10.528C142.45 9.928 143.142 9.628 143.982 9.628C144.782 9.628 145.438 9.892 145.95 10.42C146.47 10.94 146.73 11.696 146.73 12.688V12.916H141.762C141.778 13.772 141.982 14.428 142.374 14.884C142.766 15.332 143.334 15.556 144.078 15.556C145.166 15.556 145.822 15.12 146.046 14.248H146.682C146.546 14.84 146.25 15.296 145.794 15.616C145.338 15.936 144.766 16.096 144.078 16.096ZM146.07 12.4C146.038 11.648 145.838 11.088 145.47 10.72C145.11 10.352 144.614 10.168 143.982 10.168C143.366 10.168 142.862 10.368 142.47 10.768C142.078 11.168 141.85 11.712 141.786 12.4H146.07ZM148.85 12.724V16H148.214V9.724H148.85V12.724L151.91 9.724H152.666L149.606 12.688L152.87 16H152.078L148.85 12.724ZM155.178 13.204C155.098 14.18 154.946 14.9 154.722 15.364C154.506 15.82 154.162 16.048 153.69 16.048C153.538 16.048 153.426 16.036 153.354 16.012L153.234 15.964V15.352L153.354 15.4C153.426 15.424 153.522 15.436 153.642 15.436C153.802 15.436 153.934 15.384 154.038 15.28C154.15 15.176 154.238 15.012 154.302 14.788C154.374 14.556 154.43 14.32 154.47 14.08C154.51 13.84 154.55 13.528 154.59 13.144C154.638 12.656 154.686 11.928 154.734 10.96C154.75 10.68 154.766 10.268 154.782 9.724H158.706V16H158.07V10.264H155.358C155.27 11.944 155.21 12.924 155.178 13.204ZM162.351 16.096C161.703 16.096 161.187 15.944 160.803 15.64C160.419 15.328 160.227 14.884 160.227 14.308C160.227 13.636 160.499 13.152 161.043 12.856C161.587 12.56 162.295 12.412 163.167 12.412H164.475V11.848C164.475 11.256 164.347 10.828 164.091 10.564C163.843 10.3 163.443 10.168 162.891 10.168C161.851 10.168 161.263 10.612 161.127 11.5H160.503C160.567 10.884 160.823 10.42 161.271 10.108C161.727 9.788 162.275 9.628 162.915 9.628C163.603 9.628 164.139 9.808 164.523 10.168C164.915 10.52 165.111 11.08 165.111 11.848V16H164.475V15.04C164.019 15.744 163.311 16.096 162.351 16.096ZM162.399 15.58C162.983 15.58 163.475 15.428 163.875 15.124C164.275 14.812 164.475 14.428 164.475 13.972V12.904H163.191C162.719 12.904 162.319 12.94 161.991 13.012C161.671 13.084 161.403 13.228 161.187 13.444C160.971 13.66 160.863 13.948 160.863 14.308C160.863 15.156 161.375 15.58 162.399 15.58ZM167.599 10.384V16H167.047V9.724H167.959L170.143 14.992L172.399 9.724H173.275V16H172.639V10.384L170.251 16H169.951L167.599 10.384ZM179.51 13.024H175.898V16H175.262V9.724H175.898V12.484H179.51V9.724H180.146V16H179.51V13.024ZM184.697 15.556C185.385 15.556 185.949 15.316 186.389 14.836C186.837 14.356 187.061 13.716 187.061 12.916V12.82C187.061 12.004 186.837 11.36 186.389 10.888C185.949 10.408 185.385 10.168 184.697 10.168C184.009 10.168 183.441 10.412 182.993 10.9C182.545 11.38 182.321 12.02 182.321 12.82V12.916C182.321 13.708 182.541 14.348 182.981 14.836C183.429 15.316 184.001 15.556 184.697 15.556ZM186.845 15.196C186.261 15.796 185.541 16.096 184.685 16.096C183.829 16.096 183.109 15.796 182.525 15.196C181.949 14.596 181.661 13.836 181.661 12.916V12.82C181.661 11.892 181.953 11.128 182.537 10.528C183.121 9.928 183.841 9.628 184.697 9.628C185.561 9.628 186.281 9.924 186.857 10.516C187.433 11.108 187.721 11.872 187.721 12.808V12.904C187.721 13.832 187.429 14.596 186.845 15.196ZM191.726 16.096C190.822 16.096 190.098 15.804 189.554 15.22C189.018 14.636 188.75 13.872 188.75 12.928V12.832C188.75 11.888 189.018 11.12 189.554 10.528C190.098 9.928 190.79 9.628 191.63 9.628C192.43 9.628 193.086 9.892 193.598 10.42C194.118 10.94 194.378 11.696 194.378 12.688V12.916H189.41C189.426 13.772 189.63 14.428 190.022 14.884C190.414 15.332 190.982 15.556 191.726 15.556C192.814 15.556 193.47 15.12 193.694 14.248H194.33C194.194 14.84 193.898 15.296 193.442 15.616C192.986 15.936 192.414 16.096 191.726 16.096ZM193.718 12.4C193.686 11.648 193.486 11.088 193.118 10.72C192.758 10.352 192.262 10.168 191.63 10.168C191.014 10.168 190.51 10.368 190.118 10.768C189.726 11.168 189.498 11.712 189.434 12.4H193.718ZM136.652 28.096C136.004 28.096 135.488 27.944 135.104 27.64C134.72 27.328 134.528 26.884 134.528 26.308C134.528 25.636 134.8 25.152 135.344 24.856C135.888 24.56 136.596 24.412 137.468 24.412H138.776V23.848C138.776 23.256 138.648 22.828 138.392 22.564C138.144 22.3 137.744 22.168 137.192 22.168C136.152 22.168 135.564 22.612 135.428 23.5H134.804C134.868 22.884 135.124 22.42 135.572 22.108C136.028 21.788 136.576 21.628 137.216 21.628C137.904 21.628 138.44 21.808 138.824 22.168C139.216 22.52 139.412 23.08 139.412 23.848V28H138.776V27.04C138.32 27.744 137.612 28.096 136.652 28.096ZM136.7 27.58C137.284 27.58 137.776 27.428 138.176 27.124C138.576 26.812 138.776 26.428 138.776 25.972V24.904H137.492C137.02 24.904 136.62 24.94 136.292 25.012C135.972 25.084 135.704 25.228 135.488 25.444C135.272 25.66 135.164 25.948 135.164 26.308C135.164 27.156 135.676 27.58 136.7 27.58ZM141.984 22.264V28H141.348V21.724H145.332V22.264H141.984ZM148.918 28.096C148.014 28.096 147.29 27.804 146.746 27.22C146.21 26.636 145.942 25.872 145.942 24.928V24.832C145.942 23.888 146.21 23.12 146.746 22.528C147.29 21.928 147.982 21.628 148.822 21.628C149.622 21.628 150.278 21.892 150.79 22.42C151.31 22.94 151.57 23.696 151.57 24.688V24.916H146.602C146.618 25.772 146.822 26.428 147.214 26.884C147.606 27.332 148.174 27.556 148.918 27.556C150.006 27.556 150.662 27.12 150.886 26.248H151.522C151.386 26.84 151.09 27.296 150.634 27.616C150.178 27.936 149.606 28.096 148.918 28.096ZM150.91 24.4C150.878 23.648 150.678 23.088 150.31 22.72C149.95 22.352 149.454 22.168 148.822 22.168C148.206 22.168 147.702 22.368 147.31 22.768C146.918 23.168 146.69 23.712 146.626 24.4H150.91ZM157.314 25.024H153.702V28H153.066V21.724H153.702V24.484H157.314V21.724H157.95V28H157.314V25.024ZM164.229 22.264H162.057V28H161.421V22.264H159.249V21.724H164.229V22.264ZM167.809 28.096C166.953 28.096 166.237 27.804 165.661 27.22C165.093 26.628 164.809 25.864 164.809 24.928V24.832C164.809 23.888 165.097 23.12 165.673 22.528C166.249 21.928 166.961 21.628 167.809 21.628C168.489 21.628 169.077 21.808 169.573 22.168C170.069 22.528 170.353 23.044 170.425 23.716H169.801C169.729 23.212 169.509 22.828 169.141 22.564C168.781 22.3 168.337 22.168 167.809 22.168C167.137 22.168 166.577 22.412 166.129 22.9C165.689 23.38 165.469 24.024 165.469 24.832V24.928C165.469 25.736 165.689 26.376 166.129 26.848C166.569 27.32 167.129 27.556 167.809 27.556C168.353 27.556 168.817 27.404 169.201 27.1C169.593 26.796 169.825 26.372 169.897 25.828H170.485C170.405 26.5 170.117 27.048 169.621 27.472C169.125 27.888 168.521 28.096 167.809 28.096ZM176.241 22.264H174.069V28H173.433V22.264H171.261V21.724H176.241V22.264ZM177.535 21.724H179.779C180.387 21.724 180.875 21.852 181.243 22.108C181.619 22.364 181.807 22.764 181.807 23.308V23.344C181.807 24.064 181.439 24.516 180.703 24.7C181.647 24.852 182.119 25.344 182.119 26.176V26.212C182.119 26.804 181.935 27.252 181.567 27.556C181.199 27.852 180.671 28 179.983 28H177.535V21.724ZM178.171 22.24V24.484H179.779C180.683 24.484 181.135 24.112 181.135 23.368V23.332C181.135 22.604 180.679 22.24 179.767 22.24H178.171ZM178.171 25V27.484H179.923C180.939 27.484 181.447 27.072 181.447 26.248V26.212C181.447 25.404 180.923 25 179.875 25H178.171ZM186.255 27.556C186.943 27.556 187.507 27.316 187.947 26.836C188.395 26.356 188.619 25.716 188.619 24.916V24.82C188.619 24.004 188.395 23.36 187.947 22.888C187.507 22.408 186.943 22.168 186.255 22.168C185.567 22.168 184.999 22.412 184.551 22.9C184.103 23.38 183.879 24.02 183.879 24.82V24.916C183.879 25.708 184.099 26.348 184.539 26.836C184.987 27.316 185.559 27.556 186.255 27.556ZM188.403 27.196C187.819 27.796 187.099 28.096 186.243 28.096C185.387 28.096 184.667 27.796 184.083 27.196C183.507 26.596 183.219 25.836 183.219 24.916V24.82C183.219 23.892 183.511 23.128 184.095 22.528C184.679 21.928 185.399 21.628 186.255 21.628C187.119 21.628 187.839 21.924 188.415 22.516C188.991 23.108 189.279 23.872 189.279 24.808V24.904C189.279 25.832 188.987 26.596 188.403 27.196Z" fill="#171715"/>
</svg>
