<svg width="100" height="33" viewBox="0 0 100 33" fill="none" xmlns="http://www.w3.org/2000/svg">
<path opacity="0.4" d="M0.92 23.85H2.81C3.55 23.85 4.14 24.0133 4.58 24.34C5.02667 24.6667 5.25 25.1733 5.25 25.86V25.9C5.25 26.6067 5.03 27.1233 4.59 27.45C4.15667 27.7767 3.56667 27.94 2.82 27.94H1.48V31H0.92V23.85ZM2.86 27.49C4.08 27.49 4.69 26.96 4.69 25.9V25.86C4.69 25.3067 4.53 24.91 4.21 24.67C3.89 24.43 3.43333 24.31 2.84 24.31H1.48V27.49H2.86ZM8.39828 31.08C7.64495 31.08 7.04161 30.8367 6.58828 30.35C6.14161 29.8633 5.91828 29.2267 5.91828 28.44V28.36C5.91828 27.5733 6.14161 26.9333 6.58828 26.44C7.04161 25.94 7.61828 25.69 8.31828 25.69C8.98495 25.69 9.53161 25.91 9.95828 26.35C10.3916 26.7833 10.6083 27.4133 10.6083 28.24V28.43H6.46828C6.48161 29.1433 6.65161 29.69 6.97828 30.07C7.30495 30.4433 7.77828 30.63 8.39828 30.63C9.30495 30.63 9.85161 30.2667 10.0383 29.54H10.5683C10.4549 30.0333 10.2083 30.4133 9.82828 30.68C9.44828 30.9467 8.97161 31.08 8.39828 31.08ZM10.0583 28C10.0316 27.3733 9.86495 26.9067 9.55828 26.6C9.25828 26.2933 8.84495 26.14 8.31828 26.14C7.80495 26.14 7.38495 26.3067 7.05828 26.64C6.73161 26.9733 6.54161 27.4267 6.48828 28H10.0583ZM12.3754 28.27V31H11.8454V25.77H12.3754V28.27L14.9254 25.77H15.5554L13.0054 28.24L15.7254 31H15.0654L12.3754 28.27ZM17.6484 28.67C17.5818 29.4833 17.4551 30.0833 17.2684 30.47C17.0884 30.85 16.8018 31.04 16.4084 31.04C16.2818 31.04 16.1884 31.03 16.1284 31.01L16.0284 30.97V30.46L16.1284 30.5C16.1884 30.52 16.2684 30.53 16.3684 30.53C16.5018 30.53 16.6118 30.4867 16.6984 30.4C16.7918 30.3133 16.8651 30.1767 16.9184 29.99C16.9784 29.7967 17.0251 29.6 17.0584 29.4C17.0918 29.2 17.1251 28.94 17.1584 28.62C17.1984 28.2133 17.2384 27.6067 17.2784 26.8C17.2918 26.5667 17.3051 26.2233 17.3184 25.77H20.5884V31H20.0584V26.22H17.7984C17.7251 27.62 17.6751 28.4367 17.6484 28.67ZM23.626 31.08C23.086 31.08 22.656 30.9533 22.336 30.7C22.016 30.44 21.856 30.07 21.856 29.59C21.856 29.03 22.0827 28.6267 22.536 28.38C22.9893 28.1333 23.5793 28.01 24.306 28.01H25.396V27.54C25.396 27.0467 25.2893 26.69 25.076 26.47C24.8693 26.25 24.536 26.14 24.076 26.14C23.2093 26.14 22.7193 26.51 22.606 27.25H22.086C22.1393 26.7367 22.3527 26.35 22.726 26.09C23.106 25.8233 23.5627 25.69 24.096 25.69C24.6693 25.69 25.116 25.84 25.436 26.14C25.7627 26.4333 25.926 26.9 25.926 27.54V31H25.396V30.2C25.016 30.7867 24.426 31.08 23.626 31.08ZM23.666 30.65C24.1527 30.65 24.5627 30.5233 24.896 30.27C25.2293 30.01 25.396 29.69 25.396 29.31V28.42H24.326C23.9327 28.42 23.5993 28.45 23.326 28.51C23.0593 28.57 22.836 28.69 22.656 28.87C22.476 29.05 22.386 29.29 22.386 29.59C22.386 30.2967 22.8127 30.65 23.666 30.65ZM27.999 26.32V31H27.539V25.77H28.299L30.119 30.16L31.999 25.77H32.729V31H32.199V26.32L30.209 31H29.959L27.999 26.32ZM37.9247 28.52H34.9147V31H34.3847V25.77H34.9147V28.07H37.9247V25.77H38.4547V31H37.9247V28.52ZM42.2471 30.63C42.8204 30.63 43.2904 30.43 43.6571 30.03C44.0304 29.63 44.2171 29.0967 44.2171 28.43V28.35C44.2171 27.67 44.0304 27.1333 43.6571 26.74C43.2904 26.34 42.8204 26.14 42.2471 26.14C41.6738 26.14 41.2004 26.3433 40.8271 26.75C40.4538 27.15 40.2671 27.6833 40.2671 28.35V28.43C40.2671 29.09 40.4504 29.6233 40.8171 30.03C41.1904 30.43 41.6671 30.63 42.2471 30.63ZM44.0371 30.33C43.5504 30.83 42.9504 31.08 42.2371 31.08C41.5238 31.08 40.9238 30.83 40.4371 30.33C39.9571 29.83 39.7171 29.1967 39.7171 28.43V28.35C39.7171 27.5767 39.9604 26.94 40.4471 26.44C40.9338 25.94 41.5338 25.69 42.2471 25.69C42.9671 25.69 43.5671 25.9367 44.0471 26.43C44.5271 26.9233 44.7671 27.56 44.7671 28.34V28.42C44.7671 29.1933 44.5238 29.83 44.0371 30.33ZM48.1053 31.08C47.352 31.08 46.7486 30.8367 46.2953 30.35C45.8486 29.8633 45.6253 29.2267 45.6253 28.44V28.36C45.6253 27.5733 45.8486 26.9333 46.2953 26.44C46.7486 25.94 47.3253 25.69 48.0253 25.69C48.692 25.69 49.2386 25.91 49.6653 26.35C50.0986 26.7833 50.3153 27.4133 50.3153 28.24V28.43H46.1753C46.1886 29.1433 46.3586 29.69 46.6853 30.07C47.012 30.4433 47.4853 30.63 48.1053 30.63C49.012 30.63 49.5586 30.2667 49.7453 29.54H50.2753C50.162 30.0333 49.9153 30.4133 49.5353 30.68C49.1553 30.9467 48.6786 31.08 48.1053 31.08ZM49.7653 28C49.7386 27.3733 49.572 26.9067 49.2653 26.6C48.9653 26.2933 48.552 26.14 48.0253 26.14C47.512 26.14 47.092 26.3067 46.7653 26.64C46.4386 26.9733 46.2486 27.4267 46.1953 28H49.7653ZM55.4522 31.08C54.9122 31.08 54.4822 30.9533 54.1622 30.7C53.8422 30.44 53.6822 30.07 53.6822 29.59C53.6822 29.03 53.9089 28.6267 54.3622 28.38C54.8155 28.1333 55.4055 28.01 56.1322 28.01H57.2222V27.54C57.2222 27.0467 57.1155 26.69 56.9022 26.47C56.6955 26.25 56.3622 26.14 55.9022 26.14C55.0355 26.14 54.5455 26.51 54.4322 27.25H53.9122C53.9655 26.7367 54.1789 26.35 54.5522 26.09C54.9322 25.8233 55.3889 25.69 55.9222 25.69C56.4955 25.69 56.9422 25.84 57.2622 26.14C57.5889 26.4333 57.7522 26.9 57.7522 27.54V31H57.2222V30.2C56.8422 30.7867 56.2522 31.08 55.4522 31.08ZM55.4922 30.65C55.9789 30.65 56.3889 30.5233 56.7222 30.27C57.0555 30.01 57.2222 29.69 57.2222 29.31V28.42H56.1522C55.7589 28.42 55.4255 28.45 55.1522 28.51C54.8855 28.57 54.6622 28.69 54.4822 28.87C54.3022 29.05 54.2122 29.29 54.2122 29.59C54.2122 30.2967 54.6389 30.65 55.4922 30.65ZM59.8952 26.22V31H59.3652V25.77H62.6852V26.22H59.8952ZM65.6737 31.08C64.9203 31.08 64.317 30.8367 63.8637 30.35C63.417 29.8633 63.1937 29.2267 63.1937 28.44V28.36C63.1937 27.5733 63.417 26.9333 63.8637 26.44C64.317 25.94 64.8937 25.69 65.5937 25.69C66.2603 25.69 66.807 25.91 67.2337 26.35C67.667 26.7833 67.8837 27.4133 67.8837 28.24V28.43H63.7437C63.757 29.1433 63.927 29.69 64.2537 30.07C64.5803 30.4433 65.0537 30.63 65.6737 30.63C66.5803 30.63 67.127 30.2667 67.3137 29.54H67.8437C67.7303 30.0333 67.4837 30.4133 67.1037 30.68C66.7237 30.9467 66.247 31.08 65.6737 31.08ZM67.3337 28C67.307 27.3733 67.1403 26.9067 66.8337 26.6C66.5337 26.2933 66.1203 26.14 65.5937 26.14C65.0803 26.14 64.6603 26.3067 64.3337 26.64C64.007 26.9733 63.817 27.4267 63.7637 28H67.3337ZM72.6708 28.52H69.6608V31H69.1308V25.77H69.6608V28.07H72.6708V25.77H73.2008V31H72.6708V28.52ZM78.4332 26.22H76.6232V31H76.0932V26.22H74.2832V25.77H78.4332V26.22ZM81.4163 31.08C80.703 31.08 80.1063 30.8367 79.6263 30.35C79.153 29.8567 78.9163 29.22 78.9163 28.44V28.36C78.9163 27.5733 79.1563 26.9333 79.6363 26.44C80.1163 25.94 80.7097 25.69 81.4163 25.69C81.983 25.69 82.473 25.84 82.8863 26.14C83.2997 26.44 83.5363 26.87 83.5963 27.43H83.0763C83.0163 27.01 82.833 26.69 82.5263 26.47C82.2263 26.25 81.8563 26.14 81.4163 26.14C80.8563 26.14 80.3897 26.3433 80.0163 26.75C79.6497 27.15 79.4663 27.6867 79.4663 28.36V28.44C79.4663 29.1133 79.6497 29.6467 80.0163 30.04C80.383 30.4333 80.8497 30.63 81.4163 30.63C81.8697 30.63 82.2563 30.5033 82.5763 30.25C82.903 29.9967 83.0963 29.6433 83.1563 29.19H83.6463C83.5797 29.75 83.3397 30.2067 82.9263 30.56C82.513 30.9067 82.0097 31.08 81.4163 31.08ZM88.443 26.22H86.633V31H86.103V26.22H84.293V25.77H88.443V26.22ZM89.5214 25.77H91.3914C91.8981 25.77 92.3047 25.8767 92.6114 26.09C92.9247 26.3033 93.0814 26.6367 93.0814 27.09V27.12C93.0814 27.72 92.7747 28.0967 92.1614 28.25C92.9481 28.3767 93.3414 28.7867 93.3414 29.48V29.51C93.3414 30.0033 93.1881 30.3767 92.8814 30.63C92.5747 30.8767 92.1347 31 91.5614 31H89.5214V25.77ZM90.0514 26.2V28.07H91.3914C92.1447 28.07 92.5214 27.76 92.5214 27.14V27.11C92.5214 26.5033 92.1414 26.2 91.3814 26.2H90.0514ZM90.0514 28.5V30.57H91.5114C92.3581 30.57 92.7814 30.2267 92.7814 29.54V29.51C92.7814 28.8367 92.3447 28.5 91.4714 28.5H90.0514ZM96.7881 30.63C97.3615 30.63 97.8315 30.43 98.1981 30.03C98.5715 29.63 98.7581 29.0967 98.7581 28.43V28.35C98.7581 27.67 98.5715 27.1333 98.1981 26.74C97.8315 26.34 97.3615 26.14 96.7881 26.14C96.2148 26.14 95.7415 26.3433 95.3681 26.75C94.9948 27.15 94.8081 27.6833 94.8081 28.35V28.43C94.8081 29.09 94.9915 29.6233 95.3581 30.03C95.7315 30.43 96.2081 30.63 96.7881 30.63ZM98.5781 30.33C98.0915 30.83 97.4915 31.08 96.7781 31.08C96.0648 31.08 95.4648 30.83 94.9781 30.33C94.4981 29.83 94.2581 29.1967 94.2581 28.43V28.35C94.2581 27.5767 94.5015 26.94 94.9881 26.44C95.4748 25.94 96.0748 25.69 96.7881 25.69C97.5081 25.69 98.1081 25.9367 98.5881 26.43C99.0681 26.9233 99.3081 27.56 99.3081 28.34V28.42C99.3081 29.1933 99.0648 29.83 98.5781 30.33Z" fill="#171715"/>
<g clip-path="url(#clip0_29_2)">
<path d="M28.37 17.3264C25.8978 17.3264 23.9766 16.5967 22.6067 15.1372C21.2513 13.6778 20.5739 11.7045 20.5739 9.21753V9.03883C20.5739 6.65604 21.3035 4.70515 22.763 3.18613C24.2224 1.65221 26.0765 0.885254 28.3253 0.885254C30.2314 0.885254 31.8026 1.36181 33.0388 2.31492C34.2897 3.26803 35.0046 4.65302 35.1833 6.46989H32.1676C32.0037 5.38274 31.6091 4.57855 30.9836 4.05733C30.373 3.52121 29.4943 3.25314 28.3477 3.25314C26.9477 3.25314 25.8234 3.77436 24.9746 4.81684C24.1257 5.84441 23.7013 7.24429 23.7013 9.01649V9.1952C23.7013 10.9972 24.1107 12.4045 24.9299 13.4172C25.7489 14.415 26.8957 14.9139 28.37 14.9139C29.5018 14.9139 30.4252 14.6309 31.14 14.065C31.8548 13.4842 32.2941 12.6428 32.458 11.5407H35.362C35.1386 13.4321 34.4014 14.8692 33.1505 15.8521C31.9143 16.835 30.3208 17.3264 28.37 17.3264Z" fill="var(--color-logo-primary)"/>
<path d="M37.4197 0.0140381H40.1226V17.103H37.4197V0.0140381Z" fill="var(--color-logo-primary)"/>
<path d="M43.1248 5.41997H45.8277V17.103H43.1248V5.41997ZM45.582 3.05209C45.2693 3.34992 44.8895 3.49886 44.4427 3.49886C43.996 3.49886 43.6162 3.34992 43.3035 3.05209C42.9907 2.75424 42.8344 2.38937 42.8344 1.9575C42.8344 1.51073 42.9907 1.13842 43.3035 0.84057C43.6162 0.542722 43.996 0.393799 44.4427 0.393799C44.8895 0.393799 45.2693 0.542722 45.582 0.84057C45.8947 1.13842 46.0511 1.51073 46.0511 1.9575C46.0511 2.38937 45.8947 2.75424 45.582 3.05209Z" fill="var(--color-logo-primary)"/>
<path d="M53.8783 17.3265C52.1656 17.3265 50.7509 16.7978 49.634 15.7404C48.5319 14.6682 47.981 13.2236 47.981 11.4068V11.2281C47.981 9.42607 48.5394 7.96663 49.6564 6.84971C50.7881 5.73278 52.1954 5.17432 53.8783 5.17432C55.308 5.17432 56.5216 5.53173 57.5195 6.24657C58.5173 6.9465 59.0832 8.04854 59.2173 9.55267H56.6036C56.3803 8.07833 55.4867 7.34115 53.923 7.34115C52.9848 7.34115 52.2178 7.68367 51.6221 8.36873C51.0413 9.05377 50.7509 9.99199 50.7509 11.1834V11.3621C50.7509 12.6279 51.0338 13.5959 51.5998 14.2661C52.1806 14.9214 52.9773 15.249 53.99 15.249C54.7345 15.249 55.3675 15.0331 55.8888 14.6012C56.4099 14.1693 56.7153 13.5513 56.8047 12.7471H59.2843C59.1949 14.1023 58.6588 15.2043 57.6759 16.0532C56.693 16.9021 55.427 17.3265 53.8783 17.3265Z" fill="var(--color-logo-primary)"/>
<path d="M61.2523 0.0140381H63.9553V10.5578L68.1326 5.41997H71.0813L66.5466 10.7812L71.461 17.103H68.3336L63.9553 11.362V17.103H61.2523V0.0140381Z" fill="var(--color-logo-primary)"/>
<path d="M73.0236 5.41997H75.7265V17.103H73.0236V5.41997ZM75.4808 3.05209C75.1681 3.34992 74.7883 3.49886 74.3415 3.49886C73.8948 3.49886 73.515 3.34992 73.2023 3.05209C72.8895 2.75424 72.7332 2.38937 72.7332 1.9575C72.7332 1.51073 72.8895 1.13842 73.2023 0.84057C73.515 0.542722 73.8948 0.393799 74.3415 0.393799C74.7883 0.393799 75.1681 0.542722 75.4808 0.84057C75.7935 1.13842 75.9499 1.51073 75.9499 1.9575C75.9499 2.38937 75.7935 2.75424 75.4808 3.05209Z" fill="var(--color-logo-primary)"/>
<path d="M82.6602 17.3265C81.1412 17.3265 79.9572 16.9989 79.1084 16.3436C78.2743 15.6734 77.8276 14.7129 77.7681 13.4619H80.3147C80.404 14.0874 80.6199 14.5565 80.9625 14.8692C81.3049 15.182 81.8634 15.3384 82.6379 15.3384C84.0377 15.3384 84.7377 14.8395 84.7377 13.8417C84.7377 13.38 84.544 13.0375 84.1569 12.8141C83.7845 12.5758 83.1442 12.3822 82.2358 12.2333C80.6721 11.995 79.5775 11.6153 78.952 11.094C78.3265 10.5728 78.0138 9.7686 78.0138 8.68147C78.0138 7.57943 78.4456 6.72311 79.3094 6.11254C80.188 5.48706 81.2155 5.17432 82.3922 5.17432C85.1918 5.17432 86.7183 6.35081 86.9716 8.70381H84.4696C84.3504 8.15278 84.1271 7.75814 83.7995 7.51986C83.4717 7.26669 83.0026 7.14011 82.3922 7.14011C81.8113 7.14011 81.3571 7.26669 81.0295 7.51986C80.7018 7.77302 80.5381 8.1081 80.5381 8.5251C80.5381 8.95696 80.7018 9.27716 81.0295 9.48566C81.3719 9.69414 82.0124 9.87284 82.9506 10.0218C84.4696 10.2601 85.5791 10.6249 86.2791 11.1164C86.9789 11.6078 87.329 12.4343 87.329 13.5959C87.329 14.7873 86.9269 15.7107 86.1227 16.3659C85.3185 17.0063 84.1642 17.3265 82.6602 17.3265Z" fill="var(--color-logo-primary)"/>
<path d="M94.4783 17.3265C92.7209 17.3265 91.2912 16.7904 90.1893 15.7181C89.102 14.6459 88.5586 13.2013 88.5586 11.3844V11.2057C88.5586 9.41864 89.102 7.96663 90.1893 6.84971C91.2912 5.73278 92.6837 5.17432 94.3666 5.17432C95.9452 5.17432 97.2556 5.66576 98.2982 6.64866C99.3555 7.63156 99.8842 9.1059 99.8842 11.0717V11.8535H91.3286C91.3732 12.9705 91.6637 13.8268 92.1998 14.4225C92.7507 15.0182 93.5326 15.316 94.5453 15.316C96.1239 15.316 97.0174 14.7203 97.226 13.5289H99.8396C99.6459 14.765 99.0801 15.7107 98.1418 16.3659C97.2185 17.0063 95.9973 17.3265 94.4783 17.3265ZM97.2036 10.0441C97.0546 8.1081 96.109 7.14011 94.3666 7.14011C93.5624 7.14011 92.8923 7.40072 92.3561 7.92196C91.8349 8.42829 91.5073 9.13567 91.3732 10.0441H97.2036Z" fill="var(--color-logo-primary)"/>
<path d="M13.9616 2.61792H8.02791C7.64238 2.61792 7.32983 2.93046 7.32983 3.316V9.24967C7.32983 9.63521 7.64238 9.94775 8.02791 9.94775H13.9616C14.3471 9.94775 14.6597 9.63521 14.6597 9.24967V3.316C14.6597 2.93046 14.3471 2.61792 13.9616 2.61792Z" fill="var(--color-logo-primary)"/>
<path opacity="0.2" d="M6.63176 9.94775H0.69808C0.312541 9.94775 0 10.2603 0 10.6458V16.5795C0 16.965 0.312541 17.2776 0.69808 17.2776H6.63176C7.0173 17.2776 7.32984 16.965 7.32984 16.5795V10.6458C7.32984 10.2603 7.0173 9.94775 6.63176 9.94775Z" fill="var(--color-logo-primary)"/>
</g>
<defs>
<clipPath id="clip0_29_2">
<rect width="100" height="17.452" fill="white"/>
</clipPath>
</defs>
</svg>
