<?xml version="1.0" encoding="utf-8"?><svg xmlns="http://www.w3.org/2000/svg" xmlns:xlink="http://www.w3.org/1999/xlink"><symbol viewBox="0 0 12 10" id="burger" xmlns="http://www.w3.org/2000/svg"><rect y=".75" width="12" height="1.5" rx=".75"/><rect y="4.25" width="12" height="1.5" rx=".75"/><rect y="7.75" width="12" height="1.5" rx=".75"/></symbol><symbol viewBox="0 0 10 10" id="close" xmlns="http://www.w3.org/2000/svg"><path d="M.757.75a.75.75 0 011.061 0l7.425 7.425a.75.75 0 01-1.06 1.06L.756 1.811a.75.75 0 010-1.06z"/><rect x=".227" y="8.72" width="12" height="1.5" rx=".75" transform="rotate(-45 .227 8.72)"/></symbol><symbol viewBox="0 0 10 11" id="cross" xmlns="http://www.w3.org/2000/svg"><path d="M9.3.901L.433 9.768m0-8.867L9.3 9.768"/></symbol><symbol viewBox="0 0 20 20" id="eye" xmlns="http://www.w3.org/2000/svg"><path d="M10 3.75C5.833 3.75 2.275 6.342.833 10c1.442 3.658 5 6.25 9.167 6.25 4.166 0 7.725-2.592 9.166-6.25-1.441-3.658-5-6.25-9.166-6.25zm0 10.417A4.168 4.168 0 015.833 10C5.833 7.7 7.7 5.833 10 5.833S14.166 7.7 14.166 10 12.3 14.167 10 14.167zM10 7.5A2.497 2.497 0 007.5 10c0 1.383 1.117 2.5 2.5 2.5s2.5-1.117 2.5-2.5-1.117-2.5-2.5-2.5z" opacity=".3"/></symbol><symbol viewBox="0 0 20 20" id="time-clock" xmlns="http://www.w3.org/2000/svg"><path d="M8.333 2.5h3.334a.836.836 0 00.833-.833.836.836 0 00-.833-.834H8.333a.836.836 0 00-.833.834c0 .458.375.833.833.833zm7.525 3.658l.625-.625a.827.827 0 000-1.166l-.008-.009a.828.828 0 00-1.167 0l-.624.625A7.468 7.468 0 0010 3.333c-4 0-7.4 3.3-7.5 7.3a7.498 7.498 0 007.5 7.7 7.495 7.495 0 005.858-12.175zm-5.024 4.675a.836.836 0 01-.834.834.836.836 0 01-.833-.834V7.5c0-.458.375-.833.833-.833.459 0 .834.375.834.833v3.333z" opacity=".3"/></symbol></svg>