<?xml version="1.0" encoding="utf-8"?><svg xmlns="http://www.w3.org/2000/svg" xmlns:xlink="http://www.w3.org/1999/xlink"><symbol fill="none" viewBox="0 0 308 37" id="logo" xmlns="http://www.w3.org/2000/svg"><g clip-path="url(#aclip0_1_5)"><path opacity=".4" d="M206.786 6.445h2.986c1.168 0 2.1.258 2.795.774.706.516 1.059 1.316 1.059 2.4v.064c0 1.116-.348 1.932-1.043 2.448-.684.516-1.616.774-2.796.774h-2.116v4.833h-.885V6.445zm3.065 5.75c1.927 0 2.89-.838 2.89-2.512V9.62c0-.874-.253-1.5-.758-1.88-.506-.379-1.227-.568-2.164-.568h-2.148v5.022h2.18zm8.747 5.67c-1.19 0-2.143-.385-2.859-1.153-.705-.769-1.058-1.775-1.058-3.017v-.126c0-1.243.353-2.254 1.058-3.033.716-.79 1.627-1.185 2.733-1.185 1.053 0 1.916.348 2.59 1.043.685.684 1.027 1.68 1.027 2.985v.3h-6.539c.021 1.127.289 1.99.805 2.59.516.59 1.264.885 2.243.885 1.432 0 2.296-.574 2.591-1.722h.837c-.179.78-.569 1.38-1.169 1.801-.6.421-1.353.632-2.259.632zM221.22 13c-.042-.99-.305-1.727-.79-2.211-.473-.485-1.126-.727-1.958-.727-.811 0-1.474.263-1.99.79-.516.526-.816 1.242-.901 2.148h5.639zm3.66.426v4.312h-.837v-8.26h.837v3.948l4.028-3.948h.995l-4.028 3.901 4.296 4.36h-1.042l-4.249-4.313zm8.329.632c-.106 1.285-.306 2.233-.6 2.843-.285.6-.738.9-1.359.9-.2 0-.347-.015-.442-.047l-.158-.063v-.805l.158.063c.095.031.221.047.379.047a.705.705 0 00.521-.205c.148-.137.263-.353.348-.648a7.23 7.23 0 00.221-.932c.052-.316.105-.726.158-1.232.063-.642.126-1.6.189-2.874.021-.369.042-.911.064-1.627h5.164v8.26h-.837v-7.55h-3.569c-.116 2.212-.195 3.502-.237 3.87zm9.441 3.807c-.853 0-1.532-.2-2.037-.6-.506-.411-.758-.995-.758-1.754 0-.884.358-1.521 1.074-1.91.716-.39 1.648-.585 2.795-.585h1.722v-.743c0-.779-.169-1.342-.506-1.69-.326-.347-.852-.52-1.579-.52-1.369 0-2.143.583-2.322 1.752h-.821c.084-.81.421-1.421 1.011-1.832.6-.421 1.321-.632 2.164-.632.905 0 1.611.237 2.116.711.516.463.774 1.2.774 2.211v5.465h-.837v-1.263c-.6.926-1.532 1.39-2.796 1.39zm.063-.68c.769 0 1.417-.2 1.943-.6.527-.41.79-.916.79-1.516v-1.406h-1.69c-.621 0-1.148.048-1.58.143a2.117 2.117 0 00-1.058.568c-.284.284-.426.663-.426 1.137 0 1.117.674 1.675 2.021 1.675zm6.844-6.839v7.392h-.726v-8.26h1.2l2.875 6.934 2.969-6.934h1.153v8.26h-.837v-7.392l-3.143 7.392h-.395l-3.096-7.392zm15.678 3.475h-4.754v3.917h-.838v-8.26h.838v3.633h4.754V9.477h.837v8.26h-.837v-3.917zm6.827 3.333c.906 0 1.648-.316 2.227-.948.59-.631.885-1.474.885-2.527v-.126c0-1.074-.295-1.922-.885-2.543-.579-.632-1.321-.948-2.227-.948-.906 0-1.653.321-2.243.964-.59.631-.884 1.474-.884 2.527v.126c0 1.043.289 1.885.868 2.527.59.632 1.343.948 2.259.948zm2.827-.474c-.768.79-1.716 1.185-2.843 1.185-1.126 0-2.074-.395-2.843-1.185-.758-.79-1.137-1.79-1.137-3v-.127c0-1.222.384-2.227 1.153-3.017s1.716-1.185 2.843-1.185c1.137 0 2.085.39 2.843 1.17.758.778 1.137 1.784 1.137 3.016v.126c0 1.222-.384 2.227-1.153 3.017zm6.426 1.185c-1.19 0-2.143-.385-2.859-1.153-.705-.769-1.058-1.775-1.058-3.017v-.126c0-1.243.353-2.254 1.058-3.033.716-.79 1.627-1.185 2.733-1.185 1.053 0 1.916.348 2.59 1.043.684.684 1.027 1.68 1.027 2.985v.3h-6.539c.021 1.127.289 1.99.805 2.59.516.59 1.264.885 2.243.885 1.432 0 2.295-.574 2.59-1.722h.837c-.179.78-.568 1.38-1.168 1.801-.601.421-1.353.632-2.259.632zM283.937 13c-.042-.99-.305-1.727-.79-2.211-.474-.485-1.127-.727-1.958-.727-.811 0-1.475.263-1.991.79-.516.526-.816 1.242-.9 2.148h5.639zm-75.113 20.865c-.853 0-1.532-.2-2.038-.6-.505-.411-.758-.995-.758-1.754 0-.884.358-1.521 1.074-1.91.716-.39 1.648-.585 2.796-.585h1.722v-.743c0-.779-.169-1.342-.506-1.69-.326-.347-.853-.52-1.579-.52-1.369 0-2.143.584-2.322 1.752h-.821c.084-.81.421-1.421 1.01-1.832.601-.421 1.322-.632 2.164-.632.906 0 1.611.237 2.117.711.516.463.774 1.2.774 2.211v5.465h-.837v-1.263c-.601.926-1.532 1.39-2.796 1.39zm.063-.68c.769 0 1.416-.2 1.943-.6.526-.41.79-.916.79-1.516v-1.406h-1.69c-.622 0-1.148.048-1.58.142a2.117 2.117 0 00-1.058.57c-.284.283-.427.663-.427 1.136 0 1.116.674 1.675 2.022 1.675zm6.955-6.997v7.55h-.838v-8.26h5.244v.71h-4.406zm9.127 7.677c-1.19 0-2.143-.385-2.859-1.153-.706-.769-1.059-1.775-1.059-3.017v-.126c0-1.243.353-2.254 1.059-3.033.716-.79 1.627-1.185 2.732-1.185 1.053 0 1.917.348 2.591 1.043.684.684 1.026 1.68 1.026 2.985v.3h-6.539c.021 1.127.29 1.99.806 2.59.516.59 1.263.885 2.243.885 1.432 0 2.295-.574 2.59-1.722h.837c-.179.78-.569 1.38-1.169 1.801-.6.421-1.353.632-2.258.632zM227.591 29c-.043-.99-.306-1.727-.79-2.211-.474-.485-1.127-.727-1.959-.727-.811 0-1.474.263-1.99.79-.516.526-.816 1.242-.9 2.148h5.639zm8.429.821h-4.754v3.917h-.837v-8.26h.837v3.632h4.754v-3.632h.838v8.26h-.838v-3.917zm9.102-3.633h-2.859v7.55h-.837v-7.55h-2.859v-.71h6.555v.71zm4.712 7.677c-1.127 0-2.069-.385-2.827-1.153-.748-.78-1.122-1.785-1.122-3.017v-.126c0-1.243.379-2.254 1.137-3.033.759-.79 1.696-1.185 2.812-1.185.895 0 1.669.237 2.322.711s1.026 1.153 1.121 2.038h-.821c-.095-.664-.384-1.17-.869-1.517-.474-.347-1.058-.52-1.753-.52-.885 0-1.622.32-2.211.963-.579.631-.869 1.479-.869 2.543v.126c0 1.063.29 1.906.869 2.527.579.621 1.316.932 2.211.932.716 0 1.327-.2 1.832-.6.516-.4.821-.958.916-1.675h.774c-.105.885-.484 1.606-1.137 2.164-.653.548-1.448.822-2.385.822zm11.098-7.677h-2.858v7.55h-.838v-7.55h-2.858v-.71h6.554v.71zm1.704-.71h2.953c.801 0 1.443.168 1.927.505.495.337.743.864.743 1.58v.047c0 .948-.485 1.543-1.453 1.785 1.242.2 1.863.848 1.863 1.943v.047c0 .78-.242 1.369-.726 1.769-.484.39-1.179.584-2.085.584h-3.222v-8.26zm.837.679v2.953h2.116c1.19 0 1.785-.49 1.785-1.468v-.048c0-.958-.6-1.437-1.8-1.437h-2.101zm0 3.633v3.27h2.306c1.337 0 2.006-.543 2.006-1.628v-.047c0-1.064-.69-1.595-2.069-1.595h-2.243zm10.64 3.364c.906 0 1.648-.316 2.228-.948.589-.632.884-1.474.884-2.527v-.126c0-1.074-.295-1.922-.884-2.543-.58-.632-1.322-.948-2.228-.948-.905 0-1.653.321-2.242.964-.59.631-.885 1.474-.885 2.527v.126c0 1.043.29 1.885.869 2.527.59.632 1.342.948 2.258.948zm2.828-.474c-.769.79-1.717 1.185-2.843 1.185-1.127 0-2.075-.395-2.843-1.185-.759-.79-1.138-1.79-1.138-3v-.127c0-1.222.385-2.227 1.153-3.017.769-.79 1.717-1.185 2.843-1.185 1.138 0 2.085.39 2.844 1.17.758.778 1.137 1.784 1.137 3.016v.126c0 1.222-.385 2.227-1.153 3.017z" fill="#171715"/><g clip-path="url(#aclip1_1_5)" fill="var(--color-logo-primary)"><path d="M53.772 32.84c-4.686 0-8.327-1.383-10.924-4.15-2.569-2.766-3.853-6.506-3.853-11.22v-.338c0-4.516 1.383-8.214 4.15-11.093 2.765-2.908 6.28-4.361 10.542-4.361 3.613 0 6.591.903 8.934 2.71 2.371 1.806 3.726 4.431 4.065 7.875H60.97c-.31-2.06-1.059-3.585-2.244-4.573-1.158-1.016-2.823-1.524-4.996-1.524-2.654 0-4.785.988-6.394 2.964-1.609 1.947-2.413 4.6-2.413 7.96v.338c0 3.416.776 6.083 2.328 8.003 1.553 1.89 3.726 2.836 6.52 2.836 2.146 0 3.896-.536 5.251-1.609 1.355-1.1 2.188-2.695 2.498-4.784h5.504c-.423 3.585-1.82 6.309-4.191 8.172-2.343 1.863-5.364 2.794-9.061 2.794zM70.925.027h5.123v32.39h-5.123V.027zM81.738 10.273h5.123v22.144h-5.123V10.273zm4.658-4.488c-.593.564-1.313.846-2.16.846-.847 0-1.566-.282-2.16-.846a2.754 2.754 0 01-.888-2.075c0-.847.296-1.553.889-2.117.593-.565 1.312-.847 2.16-.847.846 0 1.566.282 2.159.847.592.564.889 1.27.889 2.117 0 .818-.297 1.51-.89 2.075zM102.12 32.84c-3.246 0-5.927-1.002-8.044-3.006-2.09-2.032-3.134-4.77-3.134-8.214v-.339c0-3.415 1.059-6.181 3.176-8.298 2.145-2.117 4.813-3.176 8.002-3.176 2.71 0 5.01.677 6.902 2.032 1.891 1.327 2.963 3.416 3.217 6.267h-4.953c-.424-2.795-2.117-4.192-5.081-4.192-1.778 0-3.232.65-4.361 1.948-1.101 1.298-1.651 3.076-1.651 5.335v.338c0 2.4.536 4.234 1.609 5.505 1.1 1.241 2.61 1.862 4.53 1.862 1.411 0 2.611-.409 3.599-1.227.988-.819 1.566-1.99 1.736-3.515h4.7c-.17 2.569-1.186 4.658-3.049 6.267s-4.262 2.413-7.198 2.413zM116.097.027h5.123V20.01l7.918-9.738h5.589l-8.595 10.162 9.314 11.982h-5.927l-8.299-10.882v10.882h-5.123V.027zM138.408 10.273h5.123v22.144h-5.123V10.273zm4.657-4.488c-.592.564-1.312.846-2.159.846-.847 0-1.567-.282-2.159-.846a2.754 2.754 0 01-.89-2.075c0-.847.297-1.553.89-2.117.592-.565 1.312-.847 2.159-.847.847 0 1.567.282 2.159.847.593.564.889 1.27.889 2.117 0 .818-.296 1.51-.889 2.075zM156.673 32.84c-2.879 0-5.123-.62-6.732-1.863-1.581-1.27-2.428-3.09-2.54-5.462h4.826c.17 1.186.579 2.075 1.228 2.668.649.592 1.708.889 3.176.889 2.653 0 3.98-.946 3.98-2.837 0-.875-.367-1.524-1.101-1.948-.706-.451-1.92-.818-3.641-1.1-2.964-.452-5.039-1.172-6.224-2.16-1.186-.988-1.779-2.512-1.779-4.573 0-2.088.819-3.711 2.456-4.869 1.665-1.185 3.613-1.778 5.843-1.778 5.306 0 8.2 2.23 8.68 6.69h-4.742c-.226-1.045-.65-1.793-1.271-2.244-.621-.48-1.51-.72-2.667-.72-1.101 0-1.962.24-2.583.72-.621.48-.931 1.115-.931 1.905 0 .819.31 1.425.931 1.82.649.396 1.863.734 3.642 1.017 2.879.451 4.981 1.143 6.308 2.075 1.327.931 1.99 2.498 1.99 4.7 0 2.257-.762 4.007-2.286 5.25-1.524 1.213-3.712 1.82-6.563 1.82zM179.073 32.84c-3.331 0-6.041-1.016-8.129-3.048-2.061-2.033-3.091-4.77-3.091-8.214v-.34c0-3.386 1.03-6.138 3.091-8.255 2.088-2.117 4.728-3.176 7.917-3.176 2.992 0 5.476.931 7.452 2.794 2.004 1.863 3.006 4.658 3.006 8.384v1.482h-16.216c.085 2.117.635 3.74 1.651 4.869 1.045 1.129 2.527 1.693 4.446 1.693 2.992 0 4.686-1.129 5.081-3.387h4.954c-.367 2.343-1.44 4.135-3.218 5.377-1.75 1.214-4.065 1.821-6.944 1.821zm5.166-13.803c-.283-3.67-2.075-5.504-5.378-5.504-1.524 0-2.794.494-3.81 1.482-.988.96-1.609 2.3-1.863 4.022h11.051zM26.463 4.962H15.216c-.73 0-1.323.592-1.323 1.323V17.53c0 .731.592 1.324 1.323 1.324h11.247c.73 0 1.323-.593 1.323-1.324V6.285c0-.73-.592-1.323-1.323-1.323z"/><path opacity=".2" d="M12.57 18.855H1.323c-.73 0-1.323.592-1.323 1.323v11.246c0 .731.592 1.324 1.323 1.324H12.57c.73 0 1.323-.593 1.323-1.323V20.177c0-.73-.593-1.323-1.323-1.323z"/></g></g><defs><clipPath id="aclip0_1_5"><path fill="#fff" d="M0 0h308v36.328H0z"/></clipPath><clipPath id="aclip1_1_5"><path fill="#fff" d="M0 0h189.538v33.078H0z"/></clipPath></defs></symbol><symbol fill="none" viewBox="0 0 170 57" id="logo2" xmlns="http://www.w3.org/2000/svg"><path opacity=".6" d="M1.288 42.99h2.646c1.036 0 1.862.229 2.478.686.625.457.938 1.167.938 2.128v.056c0 .99-.308 1.713-.924 2.17-.607.457-1.433.686-2.478.686H2.072V53h-.784V42.99zm2.716 5.096c1.708 0 2.562-.742 2.562-2.226v-.056c0-.775-.224-1.33-.672-1.666-.448-.336-1.087-.504-1.918-.504H2.072v4.452h1.932zm7.754 5.026c-1.055 0-1.9-.34-2.534-1.022-.626-.681-.938-1.573-.938-2.674v-.112c0-1.101.312-1.997.938-2.688.634-.7 1.442-1.05 2.422-1.05.933 0 1.698.308 2.296.924.606.607.91 1.489.91 2.646v.266H9.056c.018.999.256 1.764.714 2.296.457.523 1.12.784 1.988.784 1.269 0 2.034-.509 2.296-1.526h.742c-.16.69-.504 1.223-1.036 1.596s-1.2.56-2.002.56zm2.324-4.312c-.038-.877-.271-1.53-.7-1.96-.42-.43-1-.644-1.736-.644-.72 0-1.307.233-1.764.7-.458.467-.724 1.101-.798 1.904h4.998zm3.244.378V53h-.742v-7.322h.742v3.5l3.57-3.5h.881l-3.57 3.458L22.015 53h-.924l-3.765-3.822zm7.382.56c-.093 1.139-.27 1.979-.532 2.52-.252.532-.653.798-1.204.798-.178 0-.308-.014-.392-.042l-.14-.056v-.714l.14.056c.084.028.196.042.336.042.186 0 .34-.06.462-.182.13-.121.233-.313.308-.574.084-.27.15-.546.196-.826.046-.28.093-.644.14-1.092.056-.57.112-1.419.168-2.548.018-.327.037-.807.056-1.442h4.578V53h-.742v-6.692h-3.164c-.103 1.96-.173 3.103-.21 3.43zm8.368 3.374c-.756 0-1.358-.177-1.806-.532-.448-.364-.672-.882-.672-1.554 0-.784.318-1.349.952-1.694.635-.345 1.461-.518 2.478-.518h1.526v-.658c0-.69-.149-1.19-.448-1.498-.289-.308-.756-.462-1.4-.462-1.213 0-1.899.518-2.058 1.554h-.728c.075-.719.374-1.26.896-1.624.532-.373 1.172-.56 1.918-.56.803 0 1.428.21 1.876.63.458.41.686 1.064.686 1.96V53h-.742v-1.12c-.532.821-1.358 1.232-2.478 1.232zm.056-.602c.682 0 1.256-.177 1.722-.532.467-.364.7-.812.7-1.344v-1.246h-1.498c-.55 0-1.017.042-1.4.126a1.878 1.878 0 00-.938.504c-.252.252-.378.588-.378 1.008 0 .99.598 1.484 1.792 1.484zm6.067-6.062V53h-.644v-7.322h1.064l2.548 6.146 2.632-6.146h1.022V53h-.742v-6.552L42.293 53h-.35l-2.744-6.552zm13.896 3.08H48.88V53h-.742v-7.322h.742v3.22h4.214v-3.22h.742V53h-.742v-3.472zm6.051 2.954c.803 0 1.46-.28 1.974-.84.523-.56.784-1.307.784-2.24v-.112c0-.952-.261-1.703-.784-2.254-.513-.56-1.171-.84-1.974-.84-.803 0-1.465.285-1.988.854-.523.56-.784 1.307-.784 2.24v.112c0 .924.257 1.67.77 2.24.523.56 1.19.84 2.002.84zm2.506-.42c-.681.7-1.521 1.05-2.52 1.05-.999 0-1.839-.35-2.52-1.05-.672-.7-1.008-1.587-1.008-2.66v-.112c0-1.083.34-1.974 1.022-2.674.681-.7 1.521-1.05 2.52-1.05 1.008 0 1.848.345 2.52 1.036.672.69 1.008 1.582 1.008 2.674v.112c0 1.083-.34 1.974-1.022 2.674zm5.695 1.05c-1.054 0-1.899-.34-2.534-1.022-.625-.681-.938-1.573-.938-2.674v-.112c0-1.101.313-1.997.938-2.688.635-.7 1.442-1.05 2.422-1.05.934 0 1.7.308 2.296.924.607.607.91 1.489.91 2.646v.266h-5.796c.02.999.257 1.764.714 2.296.458.523 1.12.784 1.988.784 1.27 0 2.035-.509 2.296-1.526h.742c-.158.69-.504 1.223-1.036 1.596s-1.199.56-2.002.56zm2.324-4.312c-.037-.877-.27-1.53-.7-1.96-.42-.43-.998-.644-1.736-.644-.718 0-1.306.233-1.764.7-.457.467-.723 1.101-.798 1.904h4.998zm7.962 4.312c-.756 0-1.358-.177-1.806-.532-.448-.364-.672-.882-.672-1.554 0-.784.317-1.349.952-1.694s1.46-.518 2.478-.518h1.526v-.658c0-.69-.15-1.19-.448-1.498-.29-.308-.756-.462-1.4-.462-1.213 0-1.9.518-2.058 1.554h-.728c.075-.719.373-1.26.896-1.624.532-.373 1.171-.56 1.918-.56.803 0 1.428.21 1.876.63.457.41.686 1.064.686 1.96V53h-.742v-1.12c-.532.821-1.358 1.232-2.478 1.232zm.056-.602c.681 0 1.255-.177 1.722-.532.467-.364.7-.812.7-1.344v-1.246h-1.498c-.55 0-1.017.042-1.4.126a1.877 1.877 0 00-.938.504c-.252.252-.378.588-.378 1.008 0 .99.597 1.484 1.792 1.484zm6.164-6.202V53h-.742v-7.322h4.648v.63h-3.906zm8.09 6.804c-1.055 0-1.9-.34-2.534-1.022-.625-.681-.938-1.573-.938-2.674v-.112c0-1.101.313-1.997.938-2.688.635-.7 1.442-1.05 2.422-1.05.933 0 1.699.308 2.296.924.607.607.91 1.489.91 2.646v.266h-5.796c.019.999.257 1.764.714 2.296.457.523 1.12.784 1.988.784 1.27 0 2.035-.509 2.296-1.526h.742c-.158.69-.504 1.223-1.036 1.596s-1.2.56-2.002.56zm2.324-4.312c-.037-.877-.27-1.53-.7-1.96-.42-.43-.998-.644-1.736-.644-.719 0-1.306.233-1.764.7-.457.467-.723 1.101-.798 1.904h4.998zm7.472.728h-4.214V53h-.742v-7.322h.742v3.22h4.214v-3.22h.742V53h-.742v-3.472zm8.067-3.22h-2.534V53h-.742v-6.692h-2.534v-.63h5.81v.63zm4.177 6.804c-.999 0-1.834-.34-2.506-1.022-.663-.69-.994-1.582-.994-2.674v-.112c0-1.101.336-1.997 1.008-2.688.672-.7 1.503-1.05 2.492-1.05.793 0 1.479.21 2.058.63.579.42.91 1.022.994 1.806h-.728c-.084-.588-.341-1.036-.77-1.344-.42-.308-.938-.462-1.554-.462-.784 0-1.437.285-1.96.854-.513.56-.77 1.311-.77 2.254v.112c0 .943.257 1.69.77 2.24.513.55 1.167.826 1.96.826.635 0 1.176-.177 1.624-.532.457-.355.728-.85.812-1.484h.686c-.093.784-.429 1.423-1.008 1.918-.579.485-1.283.728-2.114.728zm9.837-6.804h-2.534V53h-.742v-6.692h-2.534v-.63h5.81v.63zm1.51-.63h2.618c.709 0 1.279.15 1.708.448.439.299.658.765.658 1.4v.042c0 .84-.429 1.367-1.288 1.582 1.101.177 1.652.751 1.652 1.722v.042c0 .69-.215 1.213-.644 1.568-.429.345-1.045.518-1.848.518h-2.856v-7.322zm.742.602v2.618h1.876c1.055 0 1.582-.434 1.582-1.302v-.042c0-.85-.532-1.274-1.596-1.274h-1.862zm0 3.22v2.898h2.044c1.185 0 1.778-.48 1.778-1.442v-.042c0-.943-.611-1.414-1.834-1.414h-1.988zm9.431 2.982c.803 0 1.461-.28 1.974-.84.523-.56.784-1.307.784-2.24v-.112c0-.952-.261-1.703-.784-2.254-.513-.56-1.171-.84-1.974-.84-.802 0-1.465.285-1.988.854-.522.56-.784 1.307-.784 2.24v.112c0 .924.257 1.67.77 2.24.523.56 1.19.84 2.002.84zm2.506-.42c-.681.7-1.521 1.05-2.52 1.05-.998 0-1.838-.35-2.52-1.05-.672-.7-1.008-1.587-1.008-2.66v-.112c0-1.083.341-1.974 1.022-2.674.682-.7 1.522-1.05 2.52-1.05 1.008 0 1.848.345 2.52 1.036.672.69 1.008 1.582 1.008 2.674v.112c0 1.083-.34 1.974-1.022 2.674z" fill="#171715"/><g clip-path="url(#bclip0_11_1052)" fill="var(--color-logo-primary)"><path d="M48.23 29.582c-4.204 0-7.47-1.24-9.799-3.722-2.304-2.48-3.455-5.835-3.455-10.063v-.304c0-4.05 1.24-7.367 3.721-9.95 2.481-2.607 5.633-3.91 9.456-3.91 3.24 0 5.912.81 8.013 2.43 2.127 1.62 3.342 3.974 3.646 7.063h-5.127c-.279-1.848-.95-3.215-2.013-4.101-1.038-.912-2.532-1.368-4.48-1.368-2.38 0-4.292.887-5.735 2.659-1.443 1.747-2.165 4.126-2.165 7.14v.303c0 3.063.696 5.456 2.089 7.177 1.392 1.697 3.342 2.545 5.848 2.545 1.924 0 3.494-.481 4.709-1.443 1.215-.988 1.962-2.418 2.24-4.292h4.937c-.38 3.216-1.633 5.659-3.76 7.33-2.1 1.67-4.81 2.506-8.126 2.506zM63.614.151h4.595v29.051h-4.596V.151zM73.312 9.341h4.595v19.861h-4.595V9.342zm4.177-4.025c-.531.506-1.177.76-1.936.76-.76 0-1.406-.254-1.937-.76a2.47 2.47 0 01-.798-1.861c0-.76.266-1.393.798-1.899.531-.506 1.177-.76 1.937-.76s1.405.254 1.936.76c.532.506.798 1.14.798 1.899a2.47 2.47 0 01-.798 1.86zM91.593 29.582c-2.912 0-5.316-.899-7.215-2.696-1.874-1.823-2.81-4.279-2.81-7.367v-.304c0-3.064.949-5.545 2.848-7.444 1.924-1.898 4.316-2.848 7.177-2.848 2.43 0 4.494.608 6.19 1.823 1.696 1.19 2.658 3.063 2.886 5.62h-4.443c-.38-2.506-1.899-3.759-4.557-3.759-1.595 0-2.899.582-3.911 1.747-.988 1.164-1.481 2.76-1.481 4.785v.304c0 2.151.48 3.797 1.443 4.936.987 1.114 2.341 1.671 4.063 1.671 1.266 0 2.342-.367 3.228-1.101.886-.734 1.405-1.785 1.557-3.152h4.215c-.152 2.304-1.063 4.177-2.734 5.62-1.67 1.443-3.823 2.165-6.456 2.165zM104.129.151h4.595v17.925l7.101-8.735h5.013l-7.709 9.114 8.355 10.747h-5.317l-7.443-9.76v9.76h-4.595V.151zM124.14 9.341h4.595v19.861h-4.595V9.342zm4.177-4.025c-.531.506-1.177.76-1.936.76-.76 0-1.405-.254-1.937-.76a2.47 2.47 0 01-.798-1.861c0-.76.266-1.393.798-1.899s1.177-.76 1.937-.76c.759 0 1.405.254 1.936.76.532.506.798 1.14.798 1.899a2.47 2.47 0 01-.798 1.86zM140.522 29.582c-2.582 0-4.595-.557-6.038-1.67-1.418-1.14-2.177-2.773-2.278-4.9h4.329c.152 1.064.519 1.861 1.101 2.393.582.531 1.532.797 2.848.797 2.38 0 3.57-.848 3.57-2.544 0-.785-.329-1.367-.987-1.747-.634-.405-1.722-.734-3.266-.987-2.659-.405-4.519-1.051-5.583-1.937-1.063-.886-1.595-2.253-1.595-4.101 0-1.874.734-3.33 2.203-4.368 1.493-1.063 3.24-1.595 5.241-1.595 4.759 0 7.354 2 7.784 6h-4.253c-.202-.936-.582-1.607-1.139-2.012-.557-.43-1.355-.646-2.392-.646-.988 0-1.76.215-2.317.646-.557.43-.835 1-.835 1.709 0 .734.278 1.278.835 1.633.582.354 1.671.658 3.266.911 2.582.405 4.468 1.025 5.658 1.86 1.19.836 1.785 2.241 1.785 4.216 0 2.026-.683 3.595-2.051 4.71-1.367 1.088-3.329 1.632-5.886 1.632zM160.613 29.582c-2.987 0-5.418-.911-7.291-2.734-1.848-1.823-2.772-4.279-2.772-7.367v-.304c0-3.038.924-5.507 2.772-7.405 1.873-1.9 4.241-2.849 7.101-2.849 2.684 0 4.912.836 6.684 2.507 1.797 1.67 2.696 4.177 2.696 7.519v1.329h-14.544c.076 1.899.569 3.355 1.481 4.367.936 1.013 2.266 1.52 3.987 1.52 2.684 0 4.203-1.014 4.557-3.039h4.443c-.329 2.101-1.291 3.71-2.886 4.823-1.569 1.089-3.645 1.633-6.228 1.633zm4.633-12.38c-.253-3.291-1.86-4.937-4.823-4.937-1.367 0-2.506.443-3.417 1.33-.887.86-1.443 2.063-1.671 3.607h9.911zM23.735 4.578H13.647c-.655 0-1.186.53-1.186 1.186v10.088c0 .655.531 1.186 1.186 1.186h10.088c.655 0 1.186-.531 1.186-1.187V5.764c0-.655-.53-1.186-1.186-1.186z"/><path opacity=".2" d="M11.274 17.038H1.187C.53 17.038 0 17.57 0 18.225v10.087c0 .656.531 1.187 1.187 1.187h10.087c.655 0 1.187-.531 1.187-1.187V18.225c0-.655-.532-1.187-1.187-1.187z"/></g><defs><clipPath id="bclip0_11_1052"><path fill="#fff" transform="translate(0 .127)" d="M0 0h170v29.668H0z"/></clipPath></defs></symbol><symbol fill="none" viewBox="0 0 24 24" id="tg" xmlns="http://www.w3.org/2000/svg"><g clip-path="url(#cclip0_0_29)"><rect width="24" height="24" rx="12" fill="#FDFCFC"/><path d="M12 0C5.376 0 0 5.376 0 12s5.376 12 12 12 12-5.376 12-12S18.624 0 12 0zm5.568 8.16c-.18 1.896-.96 6.504-1.356 8.628-.168.9-.504 1.2-.816 1.236-.696.06-1.224-.456-1.896-.9-1.056-.696-1.656-1.128-2.676-1.8-1.188-.78-.42-1.212.264-1.908.18-.18 3.252-2.976 3.312-3.228a.241.241 0 00-.06-.216c-.072-.06-.168-.036-.252-.024-.108.024-1.788 1.14-5.064 3.348-.48.324-.912.492-1.296.48-.432-.012-1.248-.24-1.86-.444-.756-.24-1.344-.372-1.296-.792.024-.216.324-.432.888-.66 3.504-1.524 5.832-2.532 6.996-3.012 3.336-1.392 4.02-1.632 4.476-1.632.096 0 .324.024.468.144.12.096.156.228.168.324-.012.072.012.288 0 .456z" fill="#171715"/></g><defs><clipPath id="cclip0_0_29"><rect width="24" height="24" rx="12" fill="#fff"/></clipPath></defs></symbol><symbol fill="none" viewBox="0 0 16 16" id="warning" xmlns="http://www.w3.org/2000/svg"><path d="M8.895 5.83V13H7.111V5.83h1.784zM7 3.96c0-.277.09-.507.272-.688C7.452 3.09 7.695 3 8 3c.3 0 .541.09.722.272.185.18.278.41.278.689a.923.923 0 01-.278.69c-.18.18-.422.27-.722.27-.305 0-.547-.09-.728-.27A.934.934 0 017 3.96z" fill="#C5C5C5"/><rect x=".5" y=".5" width="15" height="15" rx="7.5" stroke="#C5C5C5"/></symbol></svg>