<?xml version="1.0" encoding="utf-8"?><svg xmlns="http://www.w3.org/2000/svg" xmlns:xlink="http://www.w3.org/1999/xlink"><symbol fill="none" viewBox="0 0 308 37" id="logo" xmlns="http://www.w3.org/2000/svg"><g clip-path="url(#aclip0_1_5)"><path opacity=".4" d="M206.786 6.445h2.986c1.168 0 2.1.258 2.795.774.706.516 1.059 1.316 1.059 2.4v.064c0 1.116-.348 1.932-1.043 2.448-.684.516-1.616.774-2.796.774h-2.116v4.833h-.885V6.445zm3.065 5.75c1.927 0 2.89-.838 2.89-2.512V9.62c0-.874-.253-1.5-.758-1.88-.506-.379-1.227-.568-2.164-.568h-2.148v5.022h2.18zm8.747 5.67c-1.19 0-2.143-.385-2.859-1.153-.705-.769-1.058-1.775-1.058-3.017v-.126c0-1.243.353-2.254 1.058-3.033.716-.79 1.627-1.185 2.733-1.185 1.053 0 1.916.348 2.59 1.043.685.684 1.027 1.68 1.027 2.985v.3h-6.539c.021 1.127.289 1.99.805 2.59.516.59 1.264.885 2.243.885 1.432 0 2.296-.574 2.591-1.722h.837c-.179.78-.569 1.38-1.169 1.801-.6.421-1.353.632-2.259.632zM221.22 13c-.042-.99-.305-1.727-.79-2.211-.473-.485-1.126-.727-1.958-.727-.811 0-1.474.263-1.99.79-.516.526-.816 1.242-.901 2.148h5.639zm3.66.426v4.312h-.837v-8.26h.837v3.948l4.028-3.948h.995l-4.028 3.901 4.296 4.36h-1.042l-4.249-4.313zm8.329.632c-.106 1.285-.306 2.233-.6 2.843-.285.6-.738.9-1.359.9-.2 0-.347-.015-.442-.047l-.158-.063v-.805l.158.063c.095.031.221.047.379.047a.705.705 0 00.521-.205c.148-.137.263-.353.348-.648a7.23 7.23 0 00.221-.932c.052-.316.105-.726.158-1.232.063-.642.126-1.6.189-2.874.021-.369.042-.911.064-1.627h5.164v8.26h-.837v-7.55h-3.569c-.116 2.212-.195 3.502-.237 3.87zm9.441 3.807c-.853 0-1.532-.2-2.037-.6-.506-.411-.758-.995-.758-1.754 0-.884.358-1.521 1.074-1.91.716-.39 1.648-.585 2.795-.585h1.722v-.743c0-.779-.169-1.342-.506-1.69-.326-.347-.852-.52-1.579-.52-1.369 0-2.143.583-2.322 1.752h-.821c.084-.81.421-1.421 1.011-1.832.6-.421 1.321-.632 2.164-.632.905 0 1.611.237 2.116.711.516.463.774 1.2.774 2.211v5.465h-.837v-1.263c-.6.926-1.532 1.39-2.796 1.39zm.063-.68c.769 0 1.417-.2 1.943-.6.527-.41.79-.916.79-1.516v-1.406h-1.69c-.621 0-1.148.048-1.58.143a2.117 2.117 0 00-1.058.568c-.284.284-.426.663-.426 1.137 0 1.117.674 1.675 2.021 1.675zm6.844-6.839v7.392h-.726v-8.26h1.2l2.875 6.934 2.969-6.934h1.153v8.26h-.837v-7.392l-3.143 7.392h-.395l-3.096-7.392zm15.678 3.475h-4.754v3.917h-.838v-8.26h.838v3.633h4.754V9.477h.837v8.26h-.837v-3.917zm6.827 3.333c.906 0 1.648-.316 2.227-.948.59-.631.885-1.474.885-2.527v-.126c0-1.074-.295-1.922-.885-2.543-.579-.632-1.321-.948-2.227-.948-.906 0-1.653.321-2.243.964-.59.631-.884 1.474-.884 2.527v.126c0 1.043.289 1.885.868 2.527.59.632 1.343.948 2.259.948zm2.827-.474c-.768.79-1.716 1.185-2.843 1.185-1.126 0-2.074-.395-2.843-1.185-.758-.79-1.137-1.79-1.137-3v-.127c0-1.222.384-2.227 1.153-3.017s1.716-1.185 2.843-1.185c1.137 0 2.085.39 2.843 1.17.758.778 1.137 1.784 1.137 3.016v.126c0 1.222-.384 2.227-1.153 3.017zm6.426 1.185c-1.19 0-2.143-.385-2.859-1.153-.705-.769-1.058-1.775-1.058-3.017v-.126c0-1.243.353-2.254 1.058-3.033.716-.79 1.627-1.185 2.733-1.185 1.053 0 1.916.348 2.59 1.043.684.684 1.027 1.68 1.027 2.985v.3h-6.539c.021 1.127.289 1.99.805 2.59.516.59 1.264.885 2.243.885 1.432 0 2.295-.574 2.59-1.722h.837c-.179.78-.568 1.38-1.168 1.801-.601.421-1.353.632-2.259.632zM283.937 13c-.042-.99-.305-1.727-.79-2.211-.474-.485-1.127-.727-1.958-.727-.811 0-1.475.263-1.991.79-.516.526-.816 1.242-.9 2.148h5.639zm-75.113 20.865c-.853 0-1.532-.2-2.038-.6-.505-.411-.758-.995-.758-1.754 0-.884.358-1.521 1.074-1.91.716-.39 1.648-.585 2.796-.585h1.722v-.743c0-.779-.169-1.342-.506-1.69-.326-.347-.853-.52-1.579-.52-1.369 0-2.143.584-2.322 1.752h-.821c.084-.81.421-1.421 1.01-1.832.601-.421 1.322-.632 2.164-.632.906 0 1.611.237 2.117.711.516.463.774 1.2.774 2.211v5.465h-.837v-1.263c-.601.926-1.532 1.39-2.796 1.39zm.063-.68c.769 0 1.416-.2 1.943-.6.526-.41.79-.916.79-1.516v-1.406h-1.69c-.622 0-1.148.048-1.58.142a2.117 2.117 0 00-1.058.57c-.284.283-.427.663-.427 1.136 0 1.116.674 1.675 2.022 1.675zm6.955-6.997v7.55h-.838v-8.26h5.244v.71h-4.406zm9.127 7.677c-1.19 0-2.143-.385-2.859-1.153-.706-.769-1.059-1.775-1.059-3.017v-.126c0-1.243.353-2.254 1.059-3.033.716-.79 1.627-1.185 2.732-1.185 1.053 0 1.917.348 2.591 1.043.684.684 1.026 1.68 1.026 2.985v.3h-6.539c.021 1.127.29 1.99.806 2.59.516.59 1.263.885 2.243.885 1.432 0 2.295-.574 2.59-1.722h.837c-.179.78-.569 1.38-1.169 1.801-.6.421-1.353.632-2.258.632zM227.591 29c-.043-.99-.306-1.727-.79-2.211-.474-.485-1.127-.727-1.959-.727-.811 0-1.474.263-1.99.79-.516.526-.816 1.242-.9 2.148h5.639zm8.429.821h-4.754v3.917h-.837v-8.26h.837v3.632h4.754v-3.632h.838v8.26h-.838v-3.917zm9.102-3.633h-2.859v7.55h-.837v-7.55h-2.859v-.71h6.555v.71zm4.712 7.677c-1.127 0-2.069-.385-2.827-1.153-.748-.78-1.122-1.785-1.122-3.017v-.126c0-1.243.379-2.254 1.137-3.033.759-.79 1.696-1.185 2.812-1.185.895 0 1.669.237 2.322.711s1.026 1.153 1.121 2.038h-.821c-.095-.664-.384-1.17-.869-1.517-.474-.347-1.058-.52-1.753-.52-.885 0-1.622.32-2.211.963-.579.631-.869 1.479-.869 2.543v.126c0 1.063.29 1.906.869 2.527.579.621 1.316.932 2.211.932.716 0 1.327-.2 1.832-.6.516-.4.821-.958.916-1.675h.774c-.105.885-.484 1.606-1.137 2.164-.653.548-1.448.822-2.385.822zm11.098-7.677h-2.858v7.55h-.838v-7.55h-2.858v-.71h6.554v.71zm1.704-.71h2.953c.801 0 1.443.168 1.927.505.495.337.743.864.743 1.58v.047c0 .948-.485 1.543-1.453 1.785 1.242.2 1.863.848 1.863 1.943v.047c0 .78-.242 1.369-.726 1.769-.484.39-1.179.584-2.085.584h-3.222v-8.26zm.837.679v2.953h2.116c1.19 0 1.785-.49 1.785-1.468v-.048c0-.958-.6-1.437-1.8-1.437h-2.101zm0 3.633v3.27h2.306c1.337 0 2.006-.543 2.006-1.628v-.047c0-1.064-.69-1.595-2.069-1.595h-2.243zm10.64 3.364c.906 0 1.648-.316 2.228-.948.589-.632.884-1.474.884-2.527v-.126c0-1.074-.295-1.922-.884-2.543-.58-.632-1.322-.948-2.228-.948-.905 0-1.653.321-2.242.964-.59.631-.885 1.474-.885 2.527v.126c0 1.043.29 1.885.869 2.527.59.632 1.342.948 2.258.948zm2.828-.474c-.769.79-1.717 1.185-2.843 1.185-1.127 0-2.075-.395-2.843-1.185-.759-.79-1.138-1.79-1.138-3v-.127c0-1.222.385-2.227 1.153-3.017.769-.79 1.717-1.185 2.843-1.185 1.138 0 2.085.39 2.844 1.17.758.778 1.137 1.784 1.137 3.016v.126c0 1.222-.385 2.227-1.153 3.017z" fill="#171715"/><g clip-path="url(#aclip1_1_5)" fill="var(--color-logo-primary)"><path d="M53.772 32.84c-4.686 0-8.327-1.383-10.924-4.15-2.569-2.766-3.853-6.506-3.853-11.22v-.338c0-4.516 1.383-8.214 4.15-11.093 2.765-2.908 6.28-4.361 10.542-4.361 3.613 0 6.591.903 8.934 2.71 2.371 1.806 3.726 4.431 4.065 7.875H60.97c-.31-2.06-1.059-3.585-2.244-4.573-1.158-1.016-2.823-1.524-4.996-1.524-2.654 0-4.785.988-6.394 2.964-1.609 1.947-2.413 4.6-2.413 7.96v.338c0 3.416.776 6.083 2.328 8.003 1.553 1.89 3.726 2.836 6.52 2.836 2.146 0 3.896-.536 5.251-1.609 1.355-1.1 2.188-2.695 2.498-4.784h5.504c-.423 3.585-1.82 6.309-4.191 8.172-2.343 1.863-5.364 2.794-9.061 2.794zM70.925.027h5.123v32.39h-5.123V.027zM81.738 10.273h5.123v22.144h-5.123V10.273zm4.658-4.488c-.593.564-1.313.846-2.16.846-.847 0-1.566-.282-2.16-.846a2.754 2.754 0 01-.888-2.075c0-.847.296-1.553.889-2.117.593-.565 1.312-.847 2.16-.847.846 0 1.566.282 2.159.847.592.564.889 1.27.889 2.117 0 .818-.297 1.51-.89 2.075zM102.12 32.84c-3.246 0-5.927-1.002-8.044-3.006-2.09-2.032-3.134-4.77-3.134-8.214v-.339c0-3.415 1.059-6.181 3.176-8.298 2.145-2.117 4.813-3.176 8.002-3.176 2.71 0 5.01.677 6.902 2.032 1.891 1.327 2.963 3.416 3.217 6.267h-4.953c-.424-2.795-2.117-4.192-5.081-4.192-1.778 0-3.232.65-4.361 1.948-1.101 1.298-1.651 3.076-1.651 5.335v.338c0 2.4.536 4.234 1.609 5.505 1.1 1.241 2.61 1.862 4.53 1.862 1.411 0 2.611-.409 3.599-1.227.988-.819 1.566-1.99 1.736-3.515h4.7c-.17 2.569-1.186 4.658-3.049 6.267s-4.262 2.413-7.198 2.413zM116.097.027h5.123V20.01l7.918-9.738h5.589l-8.595 10.162 9.314 11.982h-5.927l-8.299-10.882v10.882h-5.123V.027zM138.408 10.273h5.123v22.144h-5.123V10.273zm4.657-4.488c-.592.564-1.312.846-2.159.846-.847 0-1.567-.282-2.159-.846a2.754 2.754 0 01-.89-2.075c0-.847.297-1.553.89-2.117.592-.565 1.312-.847 2.159-.847.847 0 1.567.282 2.159.847.593.564.889 1.27.889 2.117 0 .818-.296 1.51-.889 2.075zM156.673 32.84c-2.879 0-5.123-.62-6.732-1.863-1.581-1.27-2.428-3.09-2.54-5.462h4.826c.17 1.186.579 2.075 1.228 2.668.649.592 1.708.889 3.176.889 2.653 0 3.98-.946 3.98-2.837 0-.875-.367-1.524-1.101-1.948-.706-.451-1.92-.818-3.641-1.1-2.964-.452-5.039-1.172-6.224-2.16-1.186-.988-1.779-2.512-1.779-4.573 0-2.088.819-3.711 2.456-4.869 1.665-1.185 3.613-1.778 5.843-1.778 5.306 0 8.2 2.23 8.68 6.69h-4.742c-.226-1.045-.65-1.793-1.271-2.244-.621-.48-1.51-.72-2.667-.72-1.101 0-1.962.24-2.583.72-.621.48-.931 1.115-.931 1.905 0 .819.31 1.425.931 1.82.649.396 1.863.734 3.642 1.017 2.879.451 4.981 1.143 6.308 2.075 1.327.931 1.99 2.498 1.99 4.7 0 2.257-.762 4.007-2.286 5.25-1.524 1.213-3.712 1.82-6.563 1.82zM179.073 32.84c-3.331 0-6.041-1.016-8.129-3.048-2.061-2.033-3.091-4.77-3.091-8.214v-.34c0-3.386 1.03-6.138 3.091-8.255 2.088-2.117 4.728-3.176 7.917-3.176 2.992 0 5.476.931 7.452 2.794 2.004 1.863 3.006 4.658 3.006 8.384v1.482h-16.216c.085 2.117.635 3.74 1.651 4.869 1.045 1.129 2.527 1.693 4.446 1.693 2.992 0 4.686-1.129 5.081-3.387h4.954c-.367 2.343-1.44 4.135-3.218 5.377-1.75 1.214-4.065 1.821-6.944 1.821zm5.166-13.803c-.283-3.67-2.075-5.504-5.378-5.504-1.524 0-2.794.494-3.81 1.482-.988.96-1.609 2.3-1.863 4.022h11.051zM26.463 4.962H15.216c-.73 0-1.323.592-1.323 1.323V17.53c0 .731.592 1.324 1.323 1.324h11.247c.73 0 1.323-.593 1.323-1.324V6.285c0-.73-.592-1.323-1.323-1.323z"/><path opacity=".2" d="M12.57 18.855H1.323c-.73 0-1.323.592-1.323 1.323v11.246c0 .731.592 1.324 1.323 1.324H12.57c.73 0 1.323-.593 1.323-1.323V20.177c0-.73-.593-1.323-1.323-1.323z"/></g></g><defs><clipPath id="aclip0_1_5"><path fill="#fff" d="M0 0h308v36.328H0z"/></clipPath><clipPath id="aclip1_1_5"><path fill="#fff" d="M0 0h189.538v33.078H0z"/></clipPath></defs></symbol><symbol fill="none" viewBox="0 0 100 33" id="logo-mobile" xmlns="http://www.w3.org/2000/svg"><path opacity=".4" d="M.92 23.85h1.89c.74 0 1.33.163 1.77.49.447.327.67.833.67 1.52v.04c0 .707-.22 1.223-.66 1.55-.433.327-1.023.49-1.77.49H1.48V31H.92v-7.15zm1.94 3.64c1.22 0 1.83-.53 1.83-1.59v-.04c0-.553-.16-.95-.48-1.19-.32-.24-.777-.36-1.37-.36H1.48v3.18h1.38zm5.538 3.59c-.753 0-1.356-.243-1.81-.73-.446-.487-.67-1.123-.67-1.91v-.08c0-.787.224-1.427.67-1.92.454-.5 1.03-.75 1.73-.75.667 0 1.214.22 1.64.66.434.433.65 1.063.65 1.89v.19h-4.14c.014.713.184 1.26.51 1.64.327.373.8.56 1.42.56.907 0 1.454-.363 1.64-1.09h.53c-.113.493-.36.873-.74 1.14-.38.267-.856.4-1.43.4zm1.66-3.08c-.026-.627-.193-1.093-.5-1.4-.3-.307-.713-.46-1.24-.46-.513 0-.933.167-1.26.5-.326.333-.516.787-.57 1.36h3.57zm2.317.27V31h-.53v-5.23h.53v2.5l2.55-2.5h.63l-2.55 2.47 2.72 2.76h-.66l-2.69-2.73zm5.273.4c-.066.813-.193 1.413-.38 1.8-.18.38-.466.57-.86.57a.957.957 0 01-.28-.03l-.1-.04v-.51l.1.04c.06.02.14.03.24.03a.447.447 0 00.33-.13c.094-.087.167-.223.22-.41.06-.193.107-.39.14-.59.034-.2.067-.46.1-.78.04-.407.08-1.013.12-1.82.014-.233.027-.577.04-1.03h3.27V31h-.53v-4.78h-2.26c-.073 1.4-.123 2.217-.15 2.45zm5.978 2.41c-.54 0-.97-.127-1.29-.38-.32-.26-.48-.63-.48-1.11 0-.56.227-.963.68-1.21.453-.247 1.043-.37 1.77-.37h1.09v-.47c0-.493-.107-.85-.32-1.07-.207-.22-.54-.33-1-.33-.867 0-1.357.37-1.47 1.11h-.52c.053-.513.267-.9.64-1.16.38-.267.837-.4 1.37-.4.573 0 1.02.15 1.34.45.327.293.49.76.49 1.4V31h-.53v-.8c-.38.587-.97.88-1.77.88zm.04-.43c.487 0 .897-.127 1.23-.38.333-.26.5-.58.5-.96v-.89h-1.07c-.393 0-.727.03-1 .09-.267.06-.49.18-.67.36-.18.18-.27.42-.27.72 0 .707.427 1.06 1.28 1.06zm4.333-4.33V31h-.46v-5.23h.76l1.82 4.39 1.88-4.39h.73V31h-.53v-4.68L30.209 31h-.25l-1.96-4.68zm9.926 2.2h-3.01V31h-.53v-5.23h.53v2.3h3.01v-2.3h.53V31h-.53v-2.48zm4.322 2.11c.573 0 1.043-.2 1.41-.6.373-.4.56-.933.56-1.6v-.08c0-.68-.187-1.217-.56-1.61-.367-.4-.837-.6-1.41-.6s-1.047.203-1.42.61c-.373.4-.56.933-.56 1.6v.08c0 .66.183 1.193.55 1.6.373.4.85.6 1.43.6zm1.79-.3c-.487.5-1.087.75-1.8.75-.713 0-1.313-.25-1.8-.75-.48-.5-.72-1.133-.72-1.9v-.08c0-.773.243-1.41.73-1.91s1.087-.75 1.8-.75c.72 0 1.32.247 1.8.74s.72 1.13.72 1.91v.08c0 .773-.243 1.41-.73 1.91zm4.068.75c-.753 0-1.356-.243-1.81-.73-.446-.487-.67-1.123-.67-1.91v-.08c0-.787.224-1.427.67-1.92.454-.5 1.03-.75 1.73-.75.667 0 1.214.22 1.64.66.434.433.65 1.063.65 1.89v.19h-4.14c.014.713.184 1.26.51 1.64.327.373.8.56 1.42.56.907 0 1.454-.363 1.64-1.09h.53c-.113.493-.36.873-.74 1.14-.38.267-.856.4-1.43.4zm1.66-3.08c-.026-.627-.193-1.093-.5-1.4-.3-.307-.713-.46-1.24-.46-.513 0-.933.167-1.26.5-.326.333-.516.787-.57 1.36h3.57zm5.687 3.08c-.54 0-.97-.127-1.29-.38-.32-.26-.48-.63-.48-1.11 0-.56.227-.963.68-1.21.453-.247 1.044-.37 1.77-.37h1.09v-.47c0-.493-.107-.85-.32-1.07-.206-.22-.54-.33-1-.33-.867 0-1.357.37-1.47 1.11h-.52c.053-.513.267-.9.64-1.16.38-.267.837-.4 1.37-.4.574 0 1.02.15 1.34.45.327.293.49.76.49 1.4V31h-.53v-.8c-.38.587-.97.88-1.77.88zm.04-.43c.487 0 .897-.127 1.23-.38.334-.26.5-.58.5-.96v-.89h-1.07c-.393 0-.727.03-1 .09-.267.06-.49.18-.67.36-.18.18-.27.42-.27.72 0 .707.427 1.06 1.28 1.06zm4.403-4.43V31h-.53v-5.23h3.32v.45h-2.79zm5.779 4.86c-.754 0-1.357-.243-1.81-.73-.447-.487-.67-1.123-.67-1.91v-.08c0-.787.223-1.427.67-1.92.453-.5 1.03-.75 1.73-.75.666 0 1.213.22 1.64.66.433.433.65 1.063.65 1.89v.19h-4.14c.013.713.183 1.26.51 1.64.326.373.8.56 1.42.56.906 0 1.453-.363 1.64-1.09h.53c-.114.493-.36.873-.74 1.14-.38.267-.857.4-1.43.4zm1.66-3.08c-.027-.627-.194-1.093-.5-1.4-.3-.307-.714-.46-1.24-.46-.514 0-.934.167-1.26.5-.327.333-.517.787-.57 1.36h3.57zm5.337.52h-3.01V31h-.53v-5.23h.53v2.3h3.01v-2.3h.53V31h-.53v-2.48zm5.762-2.3h-1.81V31h-.53v-4.78h-1.81v-.45h4.15v.45zm2.983 4.86c-.713 0-1.31-.243-1.79-.73-.473-.493-.71-1.13-.71-1.91v-.08c0-.787.24-1.427.72-1.92.48-.5 1.074-.75 1.78-.75.567 0 1.057.15 1.47.45.414.3.65.73.71 1.29h-.52c-.06-.42-.243-.74-.55-.96-.3-.22-.67-.33-1.11-.33-.56 0-1.026.203-1.4.61-.366.4-.55.937-.55 1.61v.08c0 .673.184 1.207.55 1.6.367.393.834.59 1.4.59.454 0 .84-.127 1.16-.38.327-.253.52-.607.58-1.06h.49a2.056 2.056 0 01-.72 1.37c-.413.347-.916.52-1.51.52zm7.027-4.86h-1.81V31h-.53v-4.78h-1.81v-.45h4.15v.45zm1.078-.45h1.87c.507 0 .914.107 1.22.32.314.213.47.547.47 1v.03c0 .6-.306.977-.92 1.13.787.127 1.18.537 1.18 1.23v.03c0 .493-.153.867-.46 1.12-.306.247-.746.37-1.32.37h-2.04v-5.23zm.53.43v1.87h1.34c.754 0 1.13-.31 1.13-.93v-.03c0-.607-.38-.91-1.14-.91h-1.33zm0 2.3v2.07h1.46c.847 0 1.27-.343 1.27-1.03v-.03c0-.673-.436-1.01-1.31-1.01h-1.42zm6.737 2.13c.574 0 1.044-.2 1.41-.6.374-.4.56-.933.56-1.6v-.08c0-.68-.186-1.217-.56-1.61-.366-.4-.836-.6-1.41-.6-.573 0-1.046.203-1.42.61-.373.4-.56.933-.56 1.6v.08c0 .66.183 1.193.55 1.6.373.4.85.6 1.43.6zm1.79-.3c-.487.5-1.087.75-1.8.75-.713 0-1.313-.25-1.8-.75-.48-.5-.72-1.133-.72-1.9v-.08c0-.773.243-1.41.73-1.91s1.087-.75 1.8-.75c.72 0 1.32.247 1.8.74s.72 1.13.72 1.91v.08c0 .773-.243 1.41-.73 1.91z" fill="#171715"/><g clip-path="url(#bclip0_29_2)" fill="var(--color-logo-primary)"><path d="M28.37 17.326c-2.472 0-4.393-.73-5.763-2.189-1.356-1.46-2.033-3.433-2.033-5.92V9.04c0-2.383.73-4.334 2.189-5.853 1.46-1.534 3.313-2.3 5.562-2.3 1.906 0 3.478.476 4.714 1.429 1.25.953 1.966 2.338 2.144 4.155h-3.015c-.164-1.087-.559-1.891-1.184-2.413-.611-.536-1.49-.804-2.636-.804-1.4 0-2.525.521-3.373 1.564-.85 1.027-1.274 2.427-1.274 4.2v.178c0 1.802.41 3.21 1.229 4.222.819.998 1.966 1.497 3.44 1.497 1.132 0 2.055-.283 2.77-.849.715-.58 1.154-1.422 1.318-2.524h2.904c-.223 1.891-.96 3.328-2.212 4.311-1.236.983-2.83 1.474-4.78 1.474zM37.42.014h2.703v17.089H37.42V.014zM43.125 5.42h2.703v11.683h-2.703V5.42zm2.457-2.368a1.591 1.591 0 01-1.14.447c-.446 0-.826-.15-1.139-.447a1.453 1.453 0 01-.469-1.095c0-.446.157-.819.47-1.116a1.591 1.591 0 011.139-.447c.447 0 .826.149 1.139.447.313.297.47.67.47 1.117 0 .431-.157.796-.47 1.094zM53.878 17.326c-1.712 0-3.127-.528-4.244-1.586-1.102-1.072-1.653-2.516-1.653-4.333v-.179c0-1.802.558-3.261 1.675-4.378 1.132-1.117 2.54-1.676 4.222-1.676 1.43 0 2.644.358 3.642 1.073.997.7 1.563 1.802 1.697 3.306h-2.613c-.224-1.475-1.117-2.212-2.681-2.212-.938 0-1.705.343-2.3 1.028-.582.685-.872 1.623-.872 2.814v.18c0 1.265.283 2.233.849 2.903.58.655 1.377.983 2.39.983.744 0 1.377-.216 1.899-.648.52-.432.826-1.05.916-1.854h2.48c-.09 1.355-.626 2.457-1.61 3.306-.982.85-2.248 1.273-3.797 1.273zM61.252.014h2.703v10.544l4.178-5.138h2.948l-4.534 5.361 4.914 6.322h-3.127l-4.379-5.741v5.741h-2.703V.014zM73.024 5.42h2.703v11.683h-2.703V5.42zm2.457-2.368a1.591 1.591 0 01-1.14.447c-.446 0-.826-.15-1.139-.447a1.453 1.453 0 01-.469-1.095c0-.446.156-.819.47-1.116A1.591 1.591 0 0174.34.394c.447 0 .827.149 1.14.447.313.297.469.67.469 1.117 0 .431-.157.796-.47 1.094zM82.66 17.326c-1.519 0-2.703-.327-3.552-.982-.834-.67-1.28-1.631-1.34-2.882h2.547c.089.625.305 1.095.648 1.407.342.313.9.47 1.675.47 1.4 0 2.1-.5 2.1-1.497 0-.462-.194-.805-.581-1.028-.373-.238-1.013-.432-1.921-.58-1.564-.239-2.659-.619-3.284-1.14-.626-.521-.938-1.325-.938-2.413 0-1.102.432-1.958 1.295-2.568.879-.626 1.907-.939 3.083-.939 2.8 0 4.326 1.177 4.58 3.53H84.47c-.12-.551-.343-.946-.67-1.184-.328-.253-.797-.38-1.408-.38-.58 0-1.035.127-1.362.38a1.208 1.208 0 00-.492 1.005c0 .432.164.752.492.96.342.21.982.388 1.92.537 1.52.238 2.63.603 3.33 1.094.699.492 1.049 1.318 1.049 2.48 0 1.191-.402 2.115-1.206 2.77-.805.64-1.959.96-3.463.96zM94.478 17.326c-1.757 0-3.187-.536-4.289-1.608-1.087-1.072-1.63-2.517-1.63-4.334v-.178c0-1.787.543-3.24 1.63-4.356 1.102-1.117 2.495-1.676 4.178-1.676 1.578 0 2.889.492 3.931 1.475 1.058.983 1.586 2.457 1.586 4.423v.782H91.33c.044 1.117.335 1.973.87 2.569.552.595 1.334.893 2.346.893 1.579 0 2.472-.596 2.681-1.787h2.614c-.194 1.236-.76 2.182-1.698 2.837-.923.64-2.145.96-3.664.96zm2.726-7.282c-.15-1.936-1.095-2.904-2.837-2.904-.805 0-1.475.26-2.01.782-.522.506-.85 1.214-.984 2.122h5.83zM13.962 2.618H8.028a.698.698 0 00-.698.698V9.25c0 .385.312.698.698.698h5.934a.698.698 0 00.698-.698V3.316a.698.698 0 00-.698-.698z"/><path opacity=".2" d="M6.632 9.948H.698a.698.698 0 00-.698.698v5.933c0 .386.313.699.698.699h5.934a.698.698 0 00.698-.698v-5.934a.698.698 0 00-.698-.698z"/></g><defs><clipPath id="bclip0_29_2"><path fill="#fff" d="M0 0h100v17.452H0z"/></clipPath></defs></symbol><symbol fill="none" viewBox="0 0 170 57" id="logo2" xmlns="http://www.w3.org/2000/svg"><path opacity=".6" d="M1.288 42.99h2.646c1.036 0 1.862.229 2.478.686.625.457.938 1.167.938 2.128v.056c0 .99-.308 1.713-.924 2.17-.607.457-1.433.686-2.478.686H2.072V53h-.784V42.99zm2.716 5.096c1.708 0 2.562-.742 2.562-2.226v-.056c0-.775-.224-1.33-.672-1.666-.448-.336-1.087-.504-1.918-.504H2.072v4.452h1.932zm7.754 5.026c-1.055 0-1.9-.34-2.534-1.022-.626-.681-.938-1.573-.938-2.674v-.112c0-1.101.312-1.997.938-2.688.634-.7 1.442-1.05 2.422-1.05.933 0 1.698.308 2.296.924.606.607.91 1.489.91 2.646v.266H9.056c.018.999.256 1.764.714 2.296.457.523 1.12.784 1.988.784 1.269 0 2.034-.509 2.296-1.526h.742c-.16.69-.504 1.223-1.036 1.596s-1.2.56-2.002.56zm2.324-4.312c-.038-.877-.271-1.53-.7-1.96-.42-.43-1-.644-1.736-.644-.72 0-1.307.233-1.764.7-.458.467-.724 1.101-.798 1.904h4.998zm3.244.378V53h-.742v-7.322h.742v3.5l3.57-3.5h.881l-3.57 3.458L22.015 53h-.924l-3.765-3.822zm7.382.56c-.093 1.139-.27 1.979-.532 2.52-.252.532-.653.798-1.204.798-.178 0-.308-.014-.392-.042l-.14-.056v-.714l.14.056c.084.028.196.042.336.042.186 0 .34-.06.462-.182.13-.121.233-.313.308-.574.084-.27.15-.546.196-.826.046-.28.093-.644.14-1.092.056-.57.112-1.419.168-2.548.018-.327.037-.807.056-1.442h4.578V53h-.742v-6.692h-3.164c-.103 1.96-.173 3.103-.21 3.43zm8.368 3.374c-.756 0-1.358-.177-1.806-.532-.448-.364-.672-.882-.672-1.554 0-.784.318-1.349.952-1.694.635-.345 1.461-.518 2.478-.518h1.526v-.658c0-.69-.149-1.19-.448-1.498-.289-.308-.756-.462-1.4-.462-1.213 0-1.899.518-2.058 1.554h-.728c.075-.719.374-1.26.896-1.624.532-.373 1.172-.56 1.918-.56.803 0 1.428.21 1.876.63.458.41.686 1.064.686 1.96V53h-.742v-1.12c-.532.821-1.358 1.232-2.478 1.232zm.056-.602c.682 0 1.256-.177 1.722-.532.467-.364.7-.812.7-1.344v-1.246h-1.498c-.55 0-1.017.042-1.4.126a1.878 1.878 0 00-.938.504c-.252.252-.378.588-.378 1.008 0 .99.598 1.484 1.792 1.484zm6.067-6.062V53h-.644v-7.322h1.064l2.548 6.146 2.632-6.146h1.022V53h-.742v-6.552L42.293 53h-.35l-2.744-6.552zm13.896 3.08H48.88V53h-.742v-7.322h.742v3.22h4.214v-3.22h.742V53h-.742v-3.472zm6.051 2.954c.803 0 1.46-.28 1.974-.84.523-.56.784-1.307.784-2.24v-.112c0-.952-.261-1.703-.784-2.254-.513-.56-1.171-.84-1.974-.84-.803 0-1.465.285-1.988.854-.523.56-.784 1.307-.784 2.24v.112c0 .924.257 1.67.77 2.24.523.56 1.19.84 2.002.84zm2.506-.42c-.681.7-1.521 1.05-2.52 1.05-.999 0-1.839-.35-2.52-1.05-.672-.7-1.008-1.587-1.008-2.66v-.112c0-1.083.34-1.974 1.022-2.674.681-.7 1.521-1.05 2.52-1.05 1.008 0 1.848.345 2.52 1.036.672.69 1.008 1.582 1.008 2.674v.112c0 1.083-.34 1.974-1.022 2.674zm5.695 1.05c-1.054 0-1.899-.34-2.534-1.022-.625-.681-.938-1.573-.938-2.674v-.112c0-1.101.313-1.997.938-2.688.635-.7 1.442-1.05 2.422-1.05.934 0 1.7.308 2.296.924.607.607.91 1.489.91 2.646v.266h-5.796c.02.999.257 1.764.714 2.296.458.523 1.12.784 1.988.784 1.27 0 2.035-.509 2.296-1.526h.742c-.158.69-.504 1.223-1.036 1.596s-1.199.56-2.002.56zm2.324-4.312c-.037-.877-.27-1.53-.7-1.96-.42-.43-.998-.644-1.736-.644-.718 0-1.306.233-1.764.7-.457.467-.723 1.101-.798 1.904h4.998zm7.962 4.312c-.756 0-1.358-.177-1.806-.532-.448-.364-.672-.882-.672-1.554 0-.784.317-1.349.952-1.694s1.46-.518 2.478-.518h1.526v-.658c0-.69-.15-1.19-.448-1.498-.29-.308-.756-.462-1.4-.462-1.213 0-1.9.518-2.058 1.554h-.728c.075-.719.373-1.26.896-1.624.532-.373 1.171-.56 1.918-.56.803 0 1.428.21 1.876.63.457.41.686 1.064.686 1.96V53h-.742v-1.12c-.532.821-1.358 1.232-2.478 1.232zm.056-.602c.681 0 1.255-.177 1.722-.532.467-.364.7-.812.7-1.344v-1.246h-1.498c-.55 0-1.017.042-1.4.126a1.877 1.877 0 00-.938.504c-.252.252-.378.588-.378 1.008 0 .99.597 1.484 1.792 1.484zm6.164-6.202V53h-.742v-7.322h4.648v.63h-3.906zm8.09 6.804c-1.055 0-1.9-.34-2.534-1.022-.625-.681-.938-1.573-.938-2.674v-.112c0-1.101.313-1.997.938-2.688.635-.7 1.442-1.05 2.422-1.05.933 0 1.699.308 2.296.924.607.607.91 1.489.91 2.646v.266h-5.796c.019.999.257 1.764.714 2.296.457.523 1.12.784 1.988.784 1.27 0 2.035-.509 2.296-1.526h.742c-.158.69-.504 1.223-1.036 1.596s-1.2.56-2.002.56zm2.324-4.312c-.037-.877-.27-1.53-.7-1.96-.42-.43-.998-.644-1.736-.644-.719 0-1.306.233-1.764.7-.457.467-.723 1.101-.798 1.904h4.998zm7.472.728h-4.214V53h-.742v-7.322h.742v3.22h4.214v-3.22h.742V53h-.742v-3.472zm8.067-3.22h-2.534V53h-.742v-6.692h-2.534v-.63h5.81v.63zm4.177 6.804c-.999 0-1.834-.34-2.506-1.022-.663-.69-.994-1.582-.994-2.674v-.112c0-1.101.336-1.997 1.008-2.688.672-.7 1.503-1.05 2.492-1.05.793 0 1.479.21 2.058.63.579.42.91 1.022.994 1.806h-.728c-.084-.588-.341-1.036-.77-1.344-.42-.308-.938-.462-1.554-.462-.784 0-1.437.285-1.96.854-.513.56-.77 1.311-.77 2.254v.112c0 .943.257 1.69.77 2.24.513.55 1.167.826 1.96.826.635 0 1.176-.177 1.624-.532.457-.355.728-.85.812-1.484h.686c-.093.784-.429 1.423-1.008 1.918-.579.485-1.283.728-2.114.728zm9.837-6.804h-2.534V53h-.742v-6.692h-2.534v-.63h5.81v.63zm1.51-.63h2.618c.709 0 1.279.15 1.708.448.439.299.658.765.658 1.4v.042c0 .84-.429 1.367-1.288 1.582 1.101.177 1.652.751 1.652 1.722v.042c0 .69-.215 1.213-.644 1.568-.429.345-1.045.518-1.848.518h-2.856v-7.322zm.742.602v2.618h1.876c1.055 0 1.582-.434 1.582-1.302v-.042c0-.85-.532-1.274-1.596-1.274h-1.862zm0 3.22v2.898h2.044c1.185 0 1.778-.48 1.778-1.442v-.042c0-.943-.611-1.414-1.834-1.414h-1.988zm9.431 2.982c.803 0 1.461-.28 1.974-.84.523-.56.784-1.307.784-2.24v-.112c0-.952-.261-1.703-.784-2.254-.513-.56-1.171-.84-1.974-.84-.802 0-1.465.285-1.988.854-.522.56-.784 1.307-.784 2.24v.112c0 .924.257 1.67.77 2.24.523.56 1.19.84 2.002.84zm2.506-.42c-.681.7-1.521 1.05-2.52 1.05-.998 0-1.838-.35-2.52-1.05-.672-.7-1.008-1.587-1.008-2.66v-.112c0-1.083.341-1.974 1.022-2.674.682-.7 1.522-1.05 2.52-1.05 1.008 0 1.848.345 2.52 1.036.672.69 1.008 1.582 1.008 2.674v.112c0 1.083-.34 1.974-1.022 2.674z" fill="#171715"/><g clip-path="url(#cclip0_11_1052)" fill="var(--color-logo-primary)"><path d="M48.23 29.582c-4.204 0-7.47-1.24-9.799-3.722-2.304-2.48-3.455-5.835-3.455-10.063v-.304c0-4.05 1.24-7.367 3.721-9.95 2.481-2.607 5.633-3.91 9.456-3.91 3.24 0 5.912.81 8.013 2.43 2.127 1.62 3.342 3.974 3.646 7.063h-5.127c-.279-1.848-.95-3.215-2.013-4.101-1.038-.912-2.532-1.368-4.48-1.368-2.38 0-4.292.887-5.735 2.659-1.443 1.747-2.165 4.126-2.165 7.14v.303c0 3.063.696 5.456 2.089 7.177 1.392 1.697 3.342 2.545 5.848 2.545 1.924 0 3.494-.481 4.709-1.443 1.215-.988 1.962-2.418 2.24-4.292h4.937c-.38 3.216-1.633 5.659-3.76 7.33-2.1 1.67-4.81 2.506-8.126 2.506zM63.614.151h4.595v29.051h-4.596V.151zM73.312 9.341h4.595v19.861h-4.595V9.342zm4.177-4.025c-.531.506-1.177.76-1.936.76-.76 0-1.406-.254-1.937-.76a2.47 2.47 0 01-.798-1.861c0-.76.266-1.393.798-1.899.531-.506 1.177-.76 1.937-.76s1.405.254 1.936.76c.532.506.798 1.14.798 1.899a2.47 2.47 0 01-.798 1.86zM91.593 29.582c-2.912 0-5.316-.899-7.215-2.696-1.874-1.823-2.81-4.279-2.81-7.367v-.304c0-3.064.949-5.545 2.848-7.444 1.924-1.898 4.316-2.848 7.177-2.848 2.43 0 4.494.608 6.19 1.823 1.696 1.19 2.658 3.063 2.886 5.62h-4.443c-.38-2.506-1.899-3.759-4.557-3.759-1.595 0-2.899.582-3.911 1.747-.988 1.164-1.481 2.76-1.481 4.785v.304c0 2.151.48 3.797 1.443 4.936.987 1.114 2.341 1.671 4.063 1.671 1.266 0 2.342-.367 3.228-1.101.886-.734 1.405-1.785 1.557-3.152h4.215c-.152 2.304-1.063 4.177-2.734 5.62-1.67 1.443-3.823 2.165-6.456 2.165zM104.129.151h4.595v17.925l7.101-8.735h5.013l-7.709 9.114 8.355 10.747h-5.317l-7.443-9.76v9.76h-4.595V.151zM124.14 9.341h4.595v19.861h-4.595V9.342zm4.177-4.025c-.531.506-1.177.76-1.936.76-.76 0-1.405-.254-1.937-.76a2.47 2.47 0 01-.798-1.861c0-.76.266-1.393.798-1.899s1.177-.76 1.937-.76c.759 0 1.405.254 1.936.76.532.506.798 1.14.798 1.899a2.47 2.47 0 01-.798 1.86zM140.522 29.582c-2.582 0-4.595-.557-6.038-1.67-1.418-1.14-2.177-2.773-2.278-4.9h4.329c.152 1.064.519 1.861 1.101 2.393.582.531 1.532.797 2.848.797 2.38 0 3.57-.848 3.57-2.544 0-.785-.329-1.367-.987-1.747-.634-.405-1.722-.734-3.266-.987-2.659-.405-4.519-1.051-5.583-1.937-1.063-.886-1.595-2.253-1.595-4.101 0-1.874.734-3.33 2.203-4.368 1.493-1.063 3.24-1.595 5.241-1.595 4.759 0 7.354 2 7.784 6h-4.253c-.202-.936-.582-1.607-1.139-2.012-.557-.43-1.355-.646-2.392-.646-.988 0-1.76.215-2.317.646-.557.43-.835 1-.835 1.709 0 .734.278 1.278.835 1.633.582.354 1.671.658 3.266.911 2.582.405 4.468 1.025 5.658 1.86 1.19.836 1.785 2.241 1.785 4.216 0 2.026-.683 3.595-2.051 4.71-1.367 1.088-3.329 1.632-5.886 1.632zM160.613 29.582c-2.987 0-5.418-.911-7.291-2.734-1.848-1.823-2.772-4.279-2.772-7.367v-.304c0-3.038.924-5.507 2.772-7.405 1.873-1.9 4.241-2.849 7.101-2.849 2.684 0 4.912.836 6.684 2.507 1.797 1.67 2.696 4.177 2.696 7.519v1.329h-14.544c.076 1.899.569 3.355 1.481 4.367.936 1.013 2.266 1.52 3.987 1.52 2.684 0 4.203-1.014 4.557-3.039h4.443c-.329 2.101-1.291 3.71-2.886 4.823-1.569 1.089-3.645 1.633-6.228 1.633zm4.633-12.38c-.253-3.291-1.86-4.937-4.823-4.937-1.367 0-2.506.443-3.417 1.33-.887.86-1.443 2.063-1.671 3.607h9.911zM23.735 4.578H13.647c-.655 0-1.186.53-1.186 1.186v10.088c0 .655.531 1.186 1.186 1.186h10.088c.655 0 1.186-.531 1.186-1.187V5.764c0-.655-.53-1.186-1.186-1.186z"/><path opacity=".2" d="M11.274 17.038H1.187C.53 17.038 0 17.57 0 18.225v10.087c0 .656.531 1.187 1.187 1.187h10.087c.655 0 1.187-.531 1.187-1.187V18.225c0-.655-.532-1.187-1.187-1.187z"/></g><defs><clipPath id="cclip0_11_1052"><path fill="#fff" transform="translate(0 .127)" d="M0 0h170v29.668H0z"/></clipPath></defs></symbol><symbol fill="none" viewBox="0 0 199 36" id="logo2_mobile" xmlns="http://www.w3.org/2000/svg"><path d="M12.96 28.352c-3.69 0-6.539-1.067-8.544-3.2-1.963-2.027-2.944-4.843-2.944-8.448v-.256c0-3.456 1.088-6.272 3.264-8.448 2.112-2.155 4.81-3.232 8.096-3.232 2.859 0 5.173.683 6.944 2.048 1.877 1.472 2.944 3.563 3.2 6.272h-5.312c-.384-2.816-1.984-4.224-4.8-4.224-1.813 0-3.253.672-4.32 2.016-1.067 1.323-1.6 3.168-1.6 5.536v.256c0 2.39.512 4.235 1.536 5.536 1.045 1.301 2.517 1.952 4.416 1.952 1.45 0 2.635-.363 3.552-1.088.917-.747 1.483-1.845 1.696-3.296h5.088c-.277 2.795-1.355 4.928-3.232 6.4-1.813 1.45-4.16 2.176-7.04 2.176zM26.52 3.68h4.608V28H26.52V3.68zm13.344 4.608c-.512.47-1.141.704-1.888.704-.746 0-1.376-.235-1.888-.704-.49-.49-.736-1.099-.736-1.824 0-.725.246-1.323.736-1.792.512-.49 1.142-.736 1.888-.736.747 0 1.376.245 1.888.736.512.47.768 1.067.768 1.792 0 .725-.256 1.333-.768 1.824zm-4.16 2.976h4.608V28h-4.608V11.264zm16.671 17.088c-2.517 0-4.565-.736-6.144-2.208-1.642-1.536-2.464-3.637-2.464-6.304v-.256c0-2.624.843-4.757 2.528-6.4 1.6-1.536 3.638-2.304 6.112-2.304 2.155 0 3.904.48 5.248 1.44 1.536 1.11 2.41 2.795 2.624 5.056h-4.384c-.277-1.899-1.408-2.848-3.392-2.848-1.237 0-2.218.437-2.944 1.312-.704.875-1.056 2.101-1.056 3.68v.256c0 1.664.352 2.933 1.056 3.808.726.853 1.739 1.28 3.04 1.28.982 0 1.792-.277 2.432-.832.662-.555 1.046-1.355 1.152-2.4h4.192c-.128 2.07-.885 3.68-2.272 4.832-1.472 1.259-3.381 1.888-5.728 1.888zM63.506 3.68h4.64v14.656l5.376-7.072h4.928l-6.08 7.616L78.93 28h-5.248l-5.536-7.904V28h-4.64V3.68zM85.79 8.288c-.512.47-1.14.704-1.888.704-.746 0-1.376-.235-1.888-.704-.49-.49-.736-1.099-.736-1.824 0-.725.246-1.323.736-1.792.513-.49 1.142-.736 1.889-.736.746 0 1.375.245 1.887.736.512.47.768 1.067.768 1.792 0 .725-.256 1.333-.768 1.824zm-4.16 2.976h4.609V28H81.63V11.264zm15.168 17.088c-2.262 0-4.022-.48-5.28-1.44-1.26-.96-1.931-2.347-2.017-4.16h4.32c.129.81.406 1.408.832 1.792.427.384 1.131.576 2.112.576 1.75 0 2.624-.608 2.624-1.824 0-.576-.255-1.003-.767-1.28-.513-.299-1.387-.533-2.624-.704-2.262-.363-3.84-.907-4.737-1.632-.96-.747-1.44-1.941-1.44-3.584s.683-2.955 2.049-3.936c1.173-.853 2.698-1.28 4.575-1.28 1.942 0 3.51.384 4.705 1.152 1.258.853 1.994 2.197 2.208 4.032h-4.257c-.127-.704-.394-1.216-.8-1.536-.405-.32-1.013-.48-1.823-.48-.747 0-1.334.16-1.76.48-.406.32-.609.736-.609 1.248 0 .533.225.928.672 1.184.47.256 1.323.47 2.56.64 2.198.299 3.809.8 4.833 1.504 1.109.832 1.664 2.08 1.664 3.744 0 1.792-.619 3.157-1.856 4.096-1.216.939-2.945 1.408-5.184 1.408zm17.909 0c-2.603 0-4.683-.757-6.24-2.272-1.664-1.536-2.496-3.616-2.496-6.24v-.256c0-2.603.832-4.715 2.496-6.336 1.621-1.579 3.659-2.368 6.112-2.368 2.325 0 4.224.672 5.696 2.016 1.643 1.493 2.464 3.659 2.464 6.496v1.28h-12.064c.064 1.408.448 2.496 1.152 3.264.725.747 1.728 1.12 3.008 1.12 2.005 0 3.168-.779 3.488-2.336h4.384c-.277 1.813-1.109 3.21-2.496 4.192-1.365.96-3.2 1.44-5.504 1.44zm3.52-10.528c-.149-2.496-1.365-3.744-3.648-3.744-1.045 0-1.909.33-2.592.992-.661.64-1.077 1.557-1.248 2.752h7.488z" fill="#171715"/><path opacity=".6" d="M135.104 7.42h2.268c.888 0 1.596.196 2.124.588.536.392.804 1 .804 1.824v.048c0 .848-.264 1.468-.792 1.86-.52.392-1.228.588-2.124.588h-1.608V16h-.672V7.42zm2.328 4.368c1.464 0 2.196-.636 2.196-1.908v-.048c0-.664-.192-1.14-.576-1.428-.384-.288-.932-.432-1.644-.432h-1.632v3.816h1.656zm6.646 4.308c-.904 0-1.628-.292-2.172-.876-.536-.584-.804-1.348-.804-2.292v-.096c0-.944.268-1.712.804-2.304.544-.6 1.236-.9 2.076-.9.8 0 1.456.264 1.968.792.52.52.78 1.276.78 2.268v.228h-4.968c.016.856.22 1.512.612 1.968.392.448.96.672 1.704.672 1.088 0 1.744-.436 1.968-1.308h.636c-.136.592-.432 1.048-.888 1.368-.456.32-1.028.48-1.716.48zm1.992-3.696c-.032-.752-.232-1.312-.6-1.68-.36-.368-.856-.552-1.488-.552-.616 0-1.12.2-1.512.6-.392.4-.62.944-.684 1.632h4.284zm2.78.324V16h-.636V9.724h.636v3l3.06-3h.756l-3.06 2.964L152.87 16h-.792l-3.228-3.276zm6.328.48c-.08.976-.232 1.696-.456 2.16-.216.456-.56.684-1.032.684-.152 0-.264-.012-.336-.036l-.12-.048v-.612l.12.048a.936.936 0 00.288.036c.16 0 .292-.052.396-.156.112-.104.2-.268.264-.492.072-.232.128-.468.168-.708.04-.24.08-.552.12-.936a49.21 49.21 0 00.144-2.184c.016-.28.032-.692.048-1.236h3.924V16h-.636v-5.736h-2.712c-.088 1.68-.148 2.66-.18 2.94zm7.173 2.892c-.648 0-1.164-.152-1.548-.456-.384-.312-.576-.756-.576-1.332 0-.672.272-1.156.816-1.452.544-.296 1.252-.444 2.124-.444h1.308v-.564c0-.592-.128-1.02-.384-1.284-.248-.264-.648-.396-1.2-.396-1.04 0-1.628.444-1.764 1.332h-.624c.064-.616.32-1.08.768-1.392.456-.32 1.004-.48 1.644-.48.688 0 1.224.18 1.608.54.392.352.588.912.588 1.68V16h-.636v-.96c-.456.704-1.164 1.056-2.124 1.056zm.048-.516c.584 0 1.076-.152 1.476-.456.4-.312.6-.696.6-1.152v-1.068h-1.284c-.472 0-.872.036-1.2.108a1.61 1.61 0 00-.804.432c-.216.216-.324.504-.324.864 0 .848.512 1.272 1.536 1.272zm5.2-5.196V16h-.552V9.724h.912l2.184 5.268 2.256-5.268h.876V16h-.636v-5.616L170.251 16h-.3l-2.352-5.616zm11.911 2.64h-3.612V16h-.636V9.724h.636v2.76h3.612v-2.76h.636V16h-.636v-2.976zm5.187 2.532c.688 0 1.252-.24 1.692-.72.448-.48.672-1.12.672-1.92v-.096c0-.816-.224-1.46-.672-1.932-.44-.48-1.004-.72-1.692-.72s-1.256.244-1.704.732c-.448.48-.672 1.12-.672 1.92v.096c0 .792.22 1.432.66 1.92.448.48 1.02.72 1.716.72zm2.148-.36c-.584.6-1.304.9-2.16.9-.856 0-1.576-.3-2.16-.9-.576-.6-.864-1.36-.864-2.28v-.096c0-.928.292-1.692.876-2.292.584-.6 1.304-.9 2.16-.9.864 0 1.584.296 2.16.888.576.592.864 1.356.864 2.292v.096c0 .928-.292 1.692-.876 2.292zm4.881.9c-.904 0-1.628-.292-2.172-.876-.536-.584-.804-1.348-.804-2.292v-.096c0-.944.268-1.712.804-2.304.544-.6 1.236-.9 2.076-.9.8 0 1.456.264 1.968.792.52.52.78 1.276.78 2.268v.228h-4.968c.016.856.22 1.512.612 1.968.392.448.96.672 1.704.672 1.088 0 1.744-.436 1.968-1.308h.636c-.136.592-.432 1.048-.888 1.368-.456.32-1.028.48-1.716.48zm1.992-3.696c-.032-.752-.232-1.312-.6-1.68-.36-.368-.856-.552-1.488-.552-.616 0-1.12.2-1.512.6-.392.4-.62.944-.684 1.632h4.284zm-57.066 15.696c-.648 0-1.164-.152-1.548-.456-.384-.312-.576-.756-.576-1.332 0-.672.272-1.156.816-1.452.544-.296 1.252-.444 2.124-.444h1.308v-.564c0-.592-.128-1.02-.384-1.284-.248-.264-.648-.396-1.2-.396-1.04 0-1.628.444-1.764 1.332h-.624c.064-.616.32-1.08.768-1.392.456-.32 1.004-.48 1.644-.48.688 0 1.224.18 1.608.54.392.352.588.912.588 1.68V28h-.636v-.96c-.456.704-1.164 1.056-2.124 1.056zm.048-.516c.584 0 1.076-.152 1.476-.456.4-.312.6-.696.6-1.152v-1.068h-1.284c-.472 0-.872.036-1.2.108a1.61 1.61 0 00-.804.432c-.216.216-.324.504-.324.864 0 .848.512 1.272 1.536 1.272zm5.284-5.316V28h-.636v-6.276h3.984v.54h-3.348zm6.934 5.832c-.904 0-1.628-.292-2.172-.876-.536-.584-.804-1.348-.804-2.292v-.096c0-.944.268-1.712.804-2.304.544-.6 1.236-.9 2.076-.9.8 0 1.456.264 1.968.792.52.52.78 1.276.78 2.268v.228h-4.968c.016.856.22 1.512.612 1.968.392.448.96.672 1.704.672 1.088 0 1.744-.436 1.968-1.308h.636c-.136.592-.432 1.048-.888 1.368-.456.32-1.028.48-1.716.48zm1.992-3.696c-.032-.752-.232-1.312-.6-1.68-.36-.368-.856-.552-1.488-.552-.616 0-1.12.2-1.512.6-.392.4-.62.944-.684 1.632h4.284zm6.404.624h-3.612V28h-.636v-6.276h.636v2.76h3.612v-2.76h.636V28h-.636v-2.976zm6.915-2.76h-2.172V28h-.636v-5.736h-2.172v-.54h4.98v.54zm3.58 5.832c-.856 0-1.572-.292-2.148-.876-.568-.592-.852-1.356-.852-2.292v-.096c0-.944.288-1.712.864-2.304.576-.6 1.288-.9 2.136-.9.68 0 1.268.18 1.764.54.496.36.78.876.852 1.548h-.624c-.072-.504-.292-.888-.66-1.152-.36-.264-.804-.396-1.332-.396-.672 0-1.232.244-1.68.732-.44.48-.66 1.124-.66 1.932v.096c0 .808.22 1.448.66 1.92.44.472 1 .708 1.68.708.544 0 1.008-.152 1.392-.456.392-.304.624-.728.696-1.272h.588c-.08.672-.368 1.22-.864 1.644-.496.416-1.1.624-1.812.624zm8.432-5.832h-2.172V28h-.636v-5.736h-2.172v-.54h4.98v.54zm1.294-.54h2.244c.608 0 1.096.128 1.464.384.376.256.564.656.564 1.2v.036c0 .72-.368 1.172-1.104 1.356.944.152 1.416.644 1.416 1.476v.036c0 .592-.184 1.04-.552 1.344-.368.296-.896.444-1.584.444h-2.448v-6.276zm.636.516v2.244h1.608c.904 0 1.356-.372 1.356-1.116v-.036c0-.728-.456-1.092-1.368-1.092h-1.596zm0 2.76v2.484h1.752c1.016 0 1.524-.412 1.524-1.236v-.036c0-.808-.524-1.212-1.572-1.212h-1.704zm8.084 2.556c.688 0 1.252-.24 1.692-.72.448-.48.672-1.12.672-1.92v-.096c0-.816-.224-1.46-.672-1.932-.44-.48-1.004-.72-1.692-.72s-1.256.244-1.704.732c-.448.48-.672 1.12-.672 1.92v.096c0 .792.22 1.432.66 1.92.448.48 1.02.72 1.716.72zm2.148-.36c-.584.6-1.304.9-2.16.9-.856 0-1.576-.3-2.16-.9-.576-.6-.864-1.36-.864-2.28v-.096c0-.928.292-1.692.876-2.292.584-.6 1.304-.9 2.16-.9.864 0 1.584.296 2.16.888.576.592.864 1.356.864 2.292v.096c0 .928-.292 1.692-.876 2.292z" fill="#171715"/></symbol><symbol fill="none" viewBox="0 0 24 24" id="tg" xmlns="http://www.w3.org/2000/svg"><g clip-path="url(#eclip0_0_29)"><rect width="24" height="24" rx="12" fill="#FDFCFC"/><path d="M12 0C5.376 0 0 5.376 0 12s5.376 12 12 12 12-5.376 12-12S18.624 0 12 0zm5.568 8.16c-.18 1.896-.96 6.504-1.356 8.628-.168.9-.504 1.2-.816 1.236-.696.06-1.224-.456-1.896-.9-1.056-.696-1.656-1.128-2.676-1.8-1.188-.78-.42-1.212.264-1.908.18-.18 3.252-2.976 3.312-3.228a.241.241 0 00-.06-.216c-.072-.06-.168-.036-.252-.024-.108.024-1.788 1.14-5.064 3.348-.48.324-.912.492-1.296.48-.432-.012-1.248-.24-1.86-.444-.756-.24-1.344-.372-1.296-.792.024-.216.324-.432.888-.66 3.504-1.524 5.832-2.532 6.996-3.012 3.336-1.392 4.02-1.632 4.476-1.632.096 0 .324.024.468.144.12.096.156.228.168.324-.012.072.012.288 0 .456z" fill="#171715"/></g><defs><clipPath id="eclip0_0_29"><rect width="24" height="24" rx="12" fill="#fff"/></clipPath></defs></symbol><symbol fill="none" viewBox="0 0 16 16" id="warning" xmlns="http://www.w3.org/2000/svg"><path d="M8.895 5.83V13H7.111V5.83h1.784zM7 3.96c0-.277.09-.507.272-.688C7.452 3.09 7.695 3 8 3c.3 0 .541.09.722.272.185.18.278.41.278.689a.923.923 0 01-.278.69c-.18.18-.422.27-.722.27-.305 0-.547-.09-.728-.27A.934.934 0 017 3.96z" fill="#C5C5C5"/><rect x=".5" y=".5" width="15" height="15" rx="7.5" stroke="#C5C5C5"/></symbol></svg>