<svg width="308" height="37" viewBox="0 0 308 37" fill="none" xmlns="http://www.w3.org/2000/svg">
<g clip-path="url(#clip0_1_5)">
<path opacity="0.4" d="M206.786 6.44507H209.772C210.94 6.44507 211.872 6.70305 212.567 7.21902C213.273 7.73498 213.626 8.53526 213.626 9.61984V9.68302C213.626 10.7992 213.278 11.6153 212.583 12.1312C211.899 12.6472 210.967 12.9052 209.787 12.9052H207.671V17.7384H206.786V6.44507ZM209.851 12.1944C211.778 12.1944 212.741 11.3573 212.741 9.68302V9.61984C212.741 8.74586 212.488 8.11933 211.983 7.74025C211.477 7.36117 210.756 7.17163 209.819 7.17163H207.671V12.1944H209.851ZM218.598 17.8648C217.408 17.8648 216.455 17.4804 215.739 16.7117C215.034 15.9431 214.681 14.9374 214.681 13.6949V13.5686C214.681 12.326 215.034 11.3152 215.739 10.5359C216.455 9.7462 217.366 9.35133 218.472 9.35133C219.525 9.35133 220.388 9.69881 221.062 10.3938C221.747 11.0782 222.089 12.0733 222.089 13.379V13.6791H215.55C215.571 14.8058 215.839 15.6693 216.355 16.2695C216.871 16.8592 217.619 17.154 218.598 17.154C220.03 17.154 220.894 16.5801 221.189 15.4324H222.026C221.847 16.2116 221.457 16.8118 220.857 17.233C220.257 17.6542 219.504 17.8648 218.598 17.8648ZM221.22 12.9999C221.178 12.0101 220.915 11.273 220.43 10.7887C219.957 10.3043 219.304 10.0621 218.472 10.0621C217.661 10.0621 216.998 10.3253 216.482 10.8518C215.966 11.3783 215.666 12.0944 215.581 12.9999H221.22ZM224.88 13.4264V17.7384H224.043V9.47769H224.88V13.4264L228.908 9.47769H229.903L225.875 13.379L230.171 17.7384H229.129L224.88 13.4264ZM233.209 14.0582C233.103 15.3428 232.903 16.2905 232.609 16.9013C232.324 17.5015 231.871 17.8016 231.25 17.8016C231.05 17.8016 230.903 17.7858 230.808 17.7542L230.65 17.691V16.8855L230.808 16.9487C230.903 16.9802 231.029 16.996 231.187 16.996C231.398 16.996 231.571 16.9276 231.708 16.7907C231.856 16.6538 231.971 16.438 232.056 16.1431C232.15 15.8378 232.224 15.5271 232.277 15.2112C232.329 14.8953 232.382 14.4847 232.435 13.9792C232.498 13.3369 232.561 12.3787 232.624 11.1046C232.645 10.736 232.666 10.1937 232.688 9.47769H237.852V17.7384H237.015V10.1885H233.446C233.33 12.3997 233.251 13.6897 233.209 14.0582ZM242.65 17.8648C241.797 17.8648 241.118 17.6647 240.613 17.2646C240.107 16.8539 239.855 16.2695 239.855 15.5113C239.855 14.6268 240.213 13.9898 240.929 13.6001C241.645 13.2105 242.577 13.0157 243.724 13.0157H245.446V12.2734C245.446 11.4942 245.277 10.9308 244.94 10.5833C244.614 10.2358 244.088 10.0621 243.361 10.0621C241.992 10.0621 241.218 10.6465 241.039 11.8153H240.218C240.302 11.0045 240.639 10.3938 241.229 9.98312C241.829 9.56192 242.55 9.35133 243.393 9.35133C244.298 9.35133 245.004 9.58825 245.509 10.0621C246.025 10.5254 246.283 11.2625 246.283 12.2734V17.7384H245.446V16.4748C244.846 17.4014 243.914 17.8648 242.65 17.8648ZM242.713 17.1856C243.482 17.1856 244.13 16.9855 244.656 16.5854C245.183 16.1747 245.446 15.6693 245.446 15.0691V13.6633H243.756C243.135 13.6633 242.608 13.7107 242.176 13.8055C241.755 13.9002 241.402 14.0898 241.118 14.3741C240.834 14.6584 240.692 15.0375 240.692 15.5113C240.692 16.6275 241.366 17.1856 242.713 17.1856ZM249.557 10.3464V17.7384H248.831V9.47769H250.031L252.906 16.4116L255.875 9.47769H257.028V17.7384H256.191V10.3464L253.048 17.7384H252.653L249.557 10.3464ZM265.235 13.8213H260.481V17.7384H259.643V9.47769H260.481V13.1105H265.235V9.47769H266.072V17.7384H265.235V13.8213ZM272.062 17.154C272.968 17.154 273.71 16.8381 274.289 16.2063C274.879 15.5745 275.174 14.7321 275.174 13.6791V13.5528C275.174 12.4787 274.879 11.6311 274.289 11.0098C273.71 10.378 272.968 10.0621 272.062 10.0621C271.156 10.0621 270.409 10.3833 269.819 11.0256C269.229 11.6574 268.935 12.4998 268.935 13.5528V13.6791C268.935 14.7216 269.224 15.564 269.803 16.2063C270.393 16.8381 271.146 17.154 272.062 17.154ZM274.889 16.6801C274.121 17.4699 273.173 17.8648 272.046 17.8648C270.92 17.8648 269.972 17.4699 269.203 16.6801C268.445 15.8904 268.066 14.8901 268.066 13.6791V13.5528C268.066 12.3313 268.45 11.3257 269.219 10.5359C269.988 9.7462 270.935 9.35133 272.062 9.35133C273.199 9.35133 274.147 9.74093 274.905 10.5201C275.663 11.2994 276.042 12.305 276.042 13.537V13.6633C276.042 14.8848 275.658 15.8904 274.889 16.6801ZM281.315 17.8648C280.125 17.8648 279.172 17.4804 278.456 16.7117C277.751 15.9431 277.398 14.9374 277.398 13.6949V13.5686C277.398 12.326 277.751 11.3152 278.456 10.5359C279.172 9.7462 280.083 9.35133 281.189 9.35133C282.242 9.35133 283.105 9.69881 283.779 10.3938C284.463 11.0782 284.806 12.0733 284.806 13.379V13.6791H278.267C278.288 14.8058 278.556 15.6693 279.072 16.2695C279.588 16.8592 280.336 17.154 281.315 17.154C282.747 17.154 283.61 16.5801 283.905 15.4324H284.742C284.563 16.2116 284.174 16.8118 283.574 17.233C282.973 17.6542 282.221 17.8648 281.315 17.8648ZM283.937 12.9999C283.895 12.0101 283.632 11.273 283.147 10.7887C282.673 10.3043 282.02 10.0621 281.189 10.0621C280.378 10.0621 279.714 10.3253 279.198 10.8518C278.682 11.3783 278.382 12.0944 278.298 12.9999H283.937ZM208.824 33.8648C207.971 33.8648 207.292 33.6647 206.786 33.2646C206.281 32.8539 206.028 32.2695 206.028 31.5113C206.028 30.6268 206.386 29.9898 207.102 29.6001C207.818 29.2105 208.75 29.0157 209.898 29.0157H211.62V28.2734C211.62 27.4942 211.451 26.9308 211.114 26.5833C210.788 26.2358 210.261 26.0621 209.535 26.0621C208.166 26.0621 207.392 26.6465 207.213 27.8153H206.392C206.476 27.0045 206.813 26.3938 207.402 25.9831C208.003 25.5619 208.724 25.3513 209.566 25.3513C210.472 25.3513 211.177 25.5882 211.683 26.0621C212.199 26.5254 212.457 27.2625 212.457 28.2734V33.7384H211.62V32.4748C211.019 33.4014 210.088 33.8648 208.824 33.8648ZM208.887 33.1856C209.656 33.1856 210.303 32.9855 210.83 32.5854C211.356 32.1747 211.62 31.6693 211.62 31.0691V29.6633H209.93C209.308 29.6633 208.782 29.7107 208.35 29.8055C207.929 29.9002 207.576 30.0898 207.292 30.3741C207.008 30.6584 206.865 31.0375 206.865 31.5113C206.865 32.6275 207.539 33.1856 208.887 33.1856ZM215.842 26.1885V33.7384H215.004V25.4777H220.248V26.1885H215.842ZM224.969 33.8648C223.779 33.8648 222.826 33.4804 222.11 32.7117C221.404 31.9431 221.051 30.9374 221.051 29.6949V29.5686C221.051 28.326 221.404 27.3152 222.11 26.5359C222.826 25.7462 223.737 25.3513 224.842 25.3513C225.895 25.3513 226.759 25.6988 227.433 26.3938C228.117 27.0782 228.459 28.0733 228.459 29.379V29.6791H221.92C221.941 30.8058 222.21 31.6693 222.726 32.2695C223.242 32.8592 223.989 33.154 224.969 33.154C226.401 33.154 227.264 32.5801 227.559 31.4324H228.396C228.217 32.2116 227.827 32.8118 227.227 33.233C226.627 33.6542 225.874 33.8648 224.969 33.8648ZM227.591 28.9999C227.548 28.0101 227.285 27.273 226.801 26.7887C226.327 26.3043 225.674 26.0621 224.842 26.0621C224.031 26.0621 223.368 26.3253 222.852 26.8518C222.336 27.3783 222.036 28.0944 221.952 28.9999H227.591ZM236.02 29.8213H231.266V33.7384H230.429V25.4777H231.266V29.1105H236.02V25.4777H236.858V33.7384H236.02V29.8213ZM245.122 26.1885H242.263V33.7384H241.426V26.1885H238.567V25.4777H245.122V26.1885ZM249.834 33.8648C248.707 33.8648 247.765 33.4804 247.007 32.7117C246.259 31.9325 245.885 30.9269 245.885 29.6949V29.5686C245.885 28.326 246.264 27.3152 247.022 26.5359C247.781 25.7462 248.718 25.3513 249.834 25.3513C250.729 25.3513 251.503 25.5882 252.156 26.0621C252.809 26.5359 253.182 27.2151 253.277 28.0996H252.456C252.361 27.4362 252.072 26.9308 251.587 26.5833C251.113 26.2358 250.529 26.0621 249.834 26.0621C248.949 26.0621 248.212 26.3833 247.623 27.0256C247.044 27.6574 246.754 28.505 246.754 29.5686V29.6949C246.754 30.7584 247.044 31.6008 247.623 32.2221C248.202 32.8434 248.939 33.154 249.834 33.154C250.55 33.154 251.161 32.9539 251.666 32.5538C252.182 32.1537 252.487 31.5956 252.582 30.8795H253.356C253.251 31.764 252.872 32.4853 252.219 33.0434C251.566 33.591 250.771 33.8648 249.834 33.8648ZM260.932 26.1885H258.074V33.7384H257.236V26.1885H254.378V25.4777H260.932V26.1885ZM262.636 25.4777H265.589C266.39 25.4777 267.032 25.6462 267.516 25.9831C268.011 26.3201 268.259 26.8466 268.259 27.5626V27.61C268.259 28.5577 267.774 29.1526 266.806 29.3948C268.048 29.5949 268.669 30.2425 268.669 31.3376V31.385C268.669 32.1642 268.427 32.7539 267.943 33.154C267.459 33.5436 266.764 33.7384 265.858 33.7384H262.636V25.4777ZM263.473 26.1569V29.1105H265.589C266.779 29.1105 267.374 28.6209 267.374 27.6416V27.5942C267.374 26.636 266.774 26.1569 265.574 26.1569H263.473ZM263.473 29.7897V33.0592H265.779C267.116 33.0592 267.785 32.5169 267.785 31.4324V31.385C267.785 30.3214 267.095 29.7897 265.716 29.7897H263.473ZM274.113 33.154C275.019 33.154 275.761 32.8381 276.341 32.2063C276.93 31.5745 277.225 30.7321 277.225 29.6791V29.5528C277.225 28.4787 276.93 27.6311 276.341 27.0098C275.761 26.378 275.019 26.0621 274.113 26.0621C273.208 26.0621 272.46 26.3833 271.871 27.0256C271.281 27.6574 270.986 28.4998 270.986 29.5528V29.6791C270.986 30.7216 271.276 31.564 271.855 32.2063C272.445 32.8381 273.197 33.154 274.113 33.154ZM276.941 32.6801C276.172 33.4699 275.224 33.8648 274.098 33.8648C272.971 33.8648 272.023 33.4699 271.255 32.6801C270.496 31.8904 270.117 30.8901 270.117 29.6791V29.5528C270.117 28.3313 270.502 27.3257 271.27 26.5359C272.039 25.7462 272.987 25.3513 274.113 25.3513C275.251 25.3513 276.198 25.7409 276.957 26.5201C277.715 27.2994 278.094 28.305 278.094 29.537V29.6633C278.094 30.8848 277.709 31.8904 276.941 32.6801Z" fill="#171715"/>
<g clip-path="url(#clip1_1_5)">
<path d="M53.7718 32.8401C49.086 32.8401 45.4447 31.457 42.8481 28.6908C40.2792 25.9245 38.9951 22.1845 38.9951 17.4706V17.1319C38.9951 12.6156 40.3781 8.91791 43.1445 6.03878C45.9105 3.13141 49.4247 1.67773 53.6872 1.67773C57.3 1.67773 60.278 2.58099 62.6209 4.38751C64.992 6.19402 66.3469 8.81911 66.6856 12.2628H60.9697C60.6591 10.2022 59.9112 8.67796 58.7256 7.69005C57.5682 6.67388 55.9027 6.1658 53.7295 6.1658C51.076 6.1658 48.9451 7.15372 47.3361 9.12961C45.7272 11.0773 44.9227 13.7306 44.9227 17.0896V17.4283C44.9227 20.8437 45.6988 23.5111 47.2515 25.4306C48.8038 27.3218 50.9774 28.2674 53.7718 28.2674C55.917 28.2674 57.6671 27.731 59.022 26.6584C60.3769 25.5576 61.2095 23.9628 61.5201 21.874H67.0243C66.6009 25.4588 65.2037 28.1827 62.8326 30.0457C60.4897 31.9086 57.4693 32.8401 53.7718 32.8401Z" fill="#171715"/>
<path d="M70.925 0.0266113H76.0482V32.4169H70.925V0.0266113Z" fill="#171715"/>
<path d="M81.7382 10.2726H86.8613V32.4166H81.7382V10.2726ZM86.3956 5.78458C85.8028 6.3491 85.083 6.63138 84.2362 6.63138C83.3894 6.63138 82.6697 6.3491 82.0769 5.78458C81.4841 5.22004 81.1877 4.52847 81.1877 3.70991C81.1877 2.8631 81.4841 2.15743 82.0769 1.5929C82.6697 1.02836 83.3894 0.746094 84.2362 0.746094C85.083 0.746094 85.8028 1.02836 86.3956 1.5929C86.9883 2.15743 87.2847 2.8631 87.2847 3.70991C87.2847 4.52847 86.9883 5.22004 86.3956 5.78458Z" fill="#171715"/>
<path d="M102.12 32.8401C98.8739 32.8401 96.1926 31.838 94.0756 29.8339C91.9867 27.8016 90.9424 25.0636 90.9424 21.6199V21.2812C90.9424 17.8657 92.0009 15.0995 94.1179 12.9825C96.263 10.8655 98.9305 9.80701 102.12 9.80701C104.83 9.80701 107.13 10.4844 109.022 11.8393C110.913 13.166 111.985 15.2548 112.239 18.1057H107.286C106.862 15.3112 105.169 13.914 102.205 13.914C100.427 13.914 98.9728 14.5632 97.8438 15.8617C96.743 17.1601 96.1926 18.9384 96.1926 21.1965V21.5352C96.1926 23.9345 96.7288 25.7693 97.8015 27.0395C98.9023 28.2814 100.412 28.9024 102.332 28.9024C103.743 28.9024 104.943 28.4931 105.931 27.6746C106.919 26.856 107.497 25.6846 107.667 24.1603H112.367C112.197 26.729 111.181 28.8177 109.318 30.4267C107.455 32.0356 105.056 32.8401 102.12 32.8401Z" fill="#171715"/>
<path d="M116.097 0.0266113H121.22V20.0112L129.138 10.2729H134.727L126.132 20.4346L135.446 32.4169H129.519L121.22 21.5354V32.4169H116.097V0.0266113Z" fill="#171715"/>
<path d="M138.408 10.2726H143.531V32.4166H138.408V10.2726ZM143.065 5.78458C142.473 6.3491 141.753 6.63138 140.906 6.63138C140.059 6.63138 139.339 6.3491 138.747 5.78458C138.154 5.22004 137.857 4.52847 137.857 3.70991C137.857 2.8631 138.154 2.15743 138.747 1.5929C139.339 1.02836 140.059 0.746094 140.906 0.746094C141.753 0.746094 142.473 1.02836 143.065 1.5929C143.658 2.15743 143.954 2.8631 143.954 3.70991C143.954 4.52847 143.658 5.22004 143.065 5.78458Z" fill="#171715"/>
<path d="M156.673 32.8401C153.794 32.8401 151.55 32.2191 149.941 30.9771C148.36 29.7069 147.513 27.8863 147.401 25.5152H152.227C152.397 26.7007 152.806 27.5899 153.455 28.1826C154.104 28.7754 155.163 29.0718 156.631 29.0718C159.284 29.0718 160.611 28.1262 160.611 26.235C160.611 25.3599 160.244 24.7108 159.51 24.2873C158.804 23.8357 157.59 23.4688 155.869 23.1865C152.905 22.7349 150.83 22.0151 149.645 21.0272C148.459 20.0392 147.866 18.515 147.866 16.4544C147.866 14.3656 148.685 12.7426 150.322 11.5853C151.987 10.3998 153.935 9.80701 156.165 9.80701C161.471 9.80701 164.365 12.0369 164.845 16.4968H160.103C159.877 15.4523 159.453 14.7043 158.832 14.2527C158.211 13.7729 157.322 13.5329 156.165 13.5329C155.064 13.5329 154.203 13.7729 153.582 14.2527C152.961 14.7326 152.651 15.3677 152.651 16.158C152.651 16.9766 152.961 17.5835 153.582 17.9787C154.231 18.3738 155.445 18.7125 157.224 18.9948C160.103 19.4464 162.205 20.138 163.532 21.0695C164.859 22.001 165.522 23.5676 165.522 25.7693C165.522 28.0274 164.76 29.7774 163.236 31.0194C161.712 32.2332 159.524 32.8401 156.673 32.8401Z" fill="#171715"/>
<path d="M179.073 32.8401C175.742 32.8401 173.032 31.8239 170.944 29.7916C168.883 27.7592 167.853 25.0213 167.853 21.5776V21.2389C167.853 17.8516 168.883 15.0995 170.944 12.9825C173.032 10.8655 175.672 9.80701 178.861 9.80701C181.853 9.80701 184.337 10.7385 186.313 12.6015C188.317 14.4644 189.319 17.2589 189.319 20.9848V22.4667H173.103C173.188 24.5837 173.738 26.2067 174.754 27.3358C175.799 28.4649 177.281 29.0294 179.2 29.0294C182.192 29.0294 183.886 27.9004 184.281 25.6422H189.235C188.868 27.985 187.795 29.7774 186.017 31.0194C184.267 32.2332 181.952 32.8401 179.073 32.8401ZM184.239 19.0372C183.956 15.3677 182.164 13.5329 178.861 13.5329C177.337 13.5329 176.067 14.0269 175.051 15.0148C174.063 15.9745 173.442 17.3153 173.188 19.0372H184.239Z" fill="#171715"/>
<path d="M26.4628 4.96167H15.2162C14.4855 4.96167 13.8931 5.55406 13.8931 6.2848V17.5314C13.8931 18.2622 14.4855 18.8545 15.2162 18.8545H26.4628C27.1936 18.8545 27.7859 18.2622 27.7859 17.5314V6.2848C27.7859 5.55406 27.1936 4.96167 26.4628 4.96167Z" fill="#171715"/>
<path opacity="0.2" d="M12.5697 18.8547H1.32313C0.592386 18.8547 0 19.4471 0 20.1779V31.4245C0 32.1552 0.592386 32.7476 1.32313 32.7476H12.5697C13.3005 32.7476 13.8929 32.1552 13.8929 31.4245V20.1779C13.8929 19.4471 13.3005 18.8547 12.5697 18.8547Z" fill="#171715"/>
</g>
</g>
<defs>
<clipPath id="clip0_1_5">
<rect width="308" height="36.3282" fill="white"/>
</clipPath>
<clipPath id="clip1_1_5">
<rect width="189.538" height="33.0783" fill="white"/>
</clipPath>
</defs>
</svg>
