<svg width="170" height="57" viewBox="0 0 170 57" fill="none" xmlns="http://www.w3.org/2000/svg">
  <path opacity="0.6"
    d="M1.288 42.99H3.934C4.97 42.99 5.796 43.2187 6.412 43.676C7.03733 44.1333 7.35 44.8427 7.35 45.804V45.86C7.35 46.8493 7.042 47.5727 6.426 48.03C5.81933 48.4873 4.99333 48.716 3.948 48.716H2.072V53H1.288V42.99ZM4.004 48.086C5.712 48.086 6.566 47.344 6.566 45.86V45.804C6.566 45.0293 6.342 44.474 5.894 44.138C5.446 43.802 4.80667 43.634 3.976 43.634H2.072V48.086H4.004ZM11.7576 53.112C10.7029 53.112 9.85826 52.7713 9.22359 52.09C8.59826 51.4087 8.28559 50.5173 8.28559 49.416V49.304C8.28559 48.2027 8.59826 47.3067 9.22359 46.616C9.85826 45.916 10.6656 45.566 11.6456 45.566C12.5789 45.566 13.3443 45.874 13.9416 46.49C14.5483 47.0967 14.8516 47.9787 14.8516 49.136V49.402H9.05559C9.07426 50.4007 9.31226 51.166 9.76959 51.698C10.2269 52.2207 10.8896 52.482 11.7576 52.482C13.0269 52.482 13.7923 51.9733 14.0536 50.956H14.7956C14.6369 51.6467 14.2916 52.1787 13.7596 52.552C13.2276 52.9253 12.5603 53.112 11.7576 53.112ZM14.0816 48.8C14.0443 47.9227 13.8109 47.2693 13.3816 46.84C12.9616 46.4107 12.3829 46.196 11.6456 46.196C10.9269 46.196 10.3389 46.4293 9.88159 46.896C9.42426 47.3627 9.15826 47.9973 9.08359 48.8H14.0816ZM17.3255 49.178V53H16.5835V45.678H17.3255V49.178L20.8955 45.678H21.7775L18.2075 49.136L22.0155 53H21.0915L17.3255 49.178ZM24.7078 49.738C24.6145 50.8767 24.4371 51.7167 24.1758 52.258C23.9238 52.79 23.5225 53.056 22.9718 53.056C22.7945 53.056 22.6638 53.042 22.5798 53.014L22.4398 52.958V52.244L22.5798 52.3C22.6638 52.328 22.7758 52.342 22.9158 52.342C23.1025 52.342 23.2565 52.2813 23.3778 52.16C23.5085 52.0387 23.6111 51.8473 23.6858 51.586C23.7698 51.3153 23.8351 51.04 23.8818 50.76C23.9285 50.48 23.9751 50.116 24.0218 49.668C24.0778 49.0987 24.1338 48.2493 24.1898 47.12C24.2085 46.7933 24.2271 46.3127 24.2458 45.678H28.8238V53H28.0818V46.308H24.9178C24.8151 48.268 24.7451 49.4113 24.7078 49.738ZM33.0764 53.112C32.3204 53.112 31.7184 52.9347 31.2704 52.58C30.8224 52.216 30.5984 51.698 30.5984 51.026C30.5984 50.242 30.9158 49.6773 31.5504 49.332C32.1851 48.9867 33.0111 48.814 34.0284 48.814H35.5544V48.156C35.5544 47.4653 35.4051 46.966 35.1064 46.658C34.8171 46.35 34.3504 46.196 33.7064 46.196C32.4931 46.196 31.8071 46.714 31.6484 47.75H30.9204C30.9951 47.0313 31.2938 46.49 31.8164 46.126C32.3484 45.7527 32.9878 45.566 33.7344 45.566C34.5371 45.566 35.1624 45.776 35.6104 46.196C36.0678 46.6067 36.2964 47.26 36.2964 48.156V53H35.5544V51.88C35.0224 52.7013 34.1964 53.112 33.0764 53.112ZM33.1324 52.51C33.8138 52.51 34.3878 52.3327 34.8544 51.978C35.3211 51.614 35.5544 51.166 35.5544 50.634V49.388H34.0564C33.5058 49.388 33.0391 49.43 32.6564 49.514C32.2831 49.598 31.9704 49.766 31.7184 50.018C31.4664 50.27 31.3404 50.606 31.3404 51.026C31.3404 52.0153 31.9378 52.51 33.1324 52.51ZM39.1986 46.448V53H38.5546V45.678H39.6186L42.1666 51.824L44.7986 45.678H45.8206V53H45.0786V46.448L42.2926 53H41.9426L39.1986 46.448ZM53.0946 49.528H48.8806V53H48.1386V45.678H48.8806V48.898H53.0946V45.678H53.8366V53H53.0946V49.528ZM59.146 52.482C59.9486 52.482 60.6066 52.202 61.12 51.642C61.6426 51.082 61.904 50.3353 61.904 49.402V49.29C61.904 48.338 61.6426 47.5867 61.12 47.036C60.6066 46.476 59.9486 46.196 59.146 46.196C58.3433 46.196 57.6806 46.4807 57.158 47.05C56.6353 47.61 56.374 48.3567 56.374 49.29V49.402C56.374 50.326 56.6306 51.0727 57.144 51.642C57.6666 52.202 58.334 52.482 59.146 52.482ZM61.652 52.062C60.9706 52.762 60.1306 53.112 59.132 53.112C58.1333 53.112 57.2933 52.762 56.612 52.062C55.94 51.362 55.604 50.4753 55.604 49.402V49.29C55.604 48.2073 55.9446 47.316 56.626 46.616C57.3073 45.916 58.1473 45.566 59.146 45.566C60.154 45.566 60.994 45.9113 61.666 46.602C62.338 47.2927 62.674 48.184 62.674 49.276V49.388C62.674 50.4707 62.3333 51.362 61.652 52.062ZM67.3474 53.112C66.2928 53.112 65.4481 52.7713 64.8134 52.09C64.1881 51.4087 63.8754 50.5173 63.8754 49.416V49.304C63.8754 48.2027 64.1881 47.3067 64.8134 46.616C65.4481 45.916 66.2554 45.566 67.2354 45.566C68.1688 45.566 68.9341 45.874 69.5314 46.49C70.1381 47.0967 70.4414 47.9787 70.4414 49.136V49.402H64.6454C64.6641 50.4007 64.9021 51.166 65.3594 51.698C65.8168 52.2207 66.4794 52.482 67.3474 52.482C68.6168 52.482 69.3821 51.9733 69.6434 50.956H70.3854C70.2268 51.6467 69.8814 52.1787 69.3494 52.552C68.8174 52.9253 68.1501 53.112 67.3474 53.112ZM69.6714 48.8C69.6341 47.9227 69.4008 47.2693 68.9714 46.84C68.5514 46.4107 67.9728 46.196 67.2354 46.196C66.5168 46.196 65.9288 46.4293 65.4714 46.896C65.0141 47.3627 64.7481 47.9973 64.6734 48.8H69.6714ZM77.6331 53.112C76.8771 53.112 76.2751 52.9347 75.8271 52.58C75.3791 52.216 75.1551 51.698 75.1551 51.026C75.1551 50.242 75.4724 49.6773 76.1071 49.332C76.7417 48.9867 77.5677 48.814 78.5851 48.814H80.1111V48.156C80.1111 47.4653 79.9617 46.966 79.6631 46.658C79.3737 46.35 78.9071 46.196 78.2631 46.196C77.0497 46.196 76.3637 46.714 76.2051 47.75H75.4771C75.5517 47.0313 75.8504 46.49 76.3731 46.126C76.9051 45.7527 77.5444 45.566 78.2911 45.566C79.0937 45.566 79.7191 45.776 80.1671 46.196C80.6244 46.6067 80.8531 47.26 80.8531 48.156V53H80.1111V51.88C79.5791 52.7013 78.7531 53.112 77.6331 53.112ZM77.6891 52.51C78.3704 52.51 78.9444 52.3327 79.4111 51.978C79.8777 51.614 80.1111 51.166 80.1111 50.634V49.388H78.6131C78.0624 49.388 77.5957 49.43 77.2131 49.514C76.8397 49.598 76.5271 49.766 76.2751 50.018C76.0231 50.27 75.8971 50.606 75.8971 51.026C75.8971 52.0153 76.4944 52.51 77.6891 52.51ZM83.8532 46.308V53H83.1112V45.678H87.7592V46.308H83.8532ZM91.9431 53.112C90.8885 53.112 90.0438 52.7713 89.4091 52.09C88.7838 51.4087 88.4711 50.5173 88.4711 49.416V49.304C88.4711 48.2027 88.7838 47.3067 89.4091 46.616C90.0438 45.916 90.8511 45.566 91.8311 45.566C92.7645 45.566 93.5298 45.874 94.1271 46.49C94.7338 47.0967 95.0371 47.9787 95.0371 49.136V49.402H89.2411C89.2598 50.4007 89.4978 51.166 89.9551 51.698C90.4125 52.2207 91.0751 52.482 91.9431 52.482C93.2125 52.482 93.9778 51.9733 94.2391 50.956H94.9811C94.8225 51.6467 94.4771 52.1787 93.9451 52.552C93.4131 52.9253 92.7458 53.112 91.9431 53.112ZM94.2671 48.8C94.2298 47.9227 93.9965 47.2693 93.5671 46.84C93.1471 46.4107 92.5685 46.196 91.8311 46.196C91.1125 46.196 90.5245 46.4293 90.0671 46.896C89.6098 47.3627 89.3438 47.9973 89.2691 48.8H94.2671ZM101.739 49.528H97.5251V53H96.7831V45.678H97.5251V48.898H101.739V45.678H102.481V53H101.739V49.528ZM109.806 46.308H107.272V53H106.53V46.308H103.996V45.678H109.806V46.308ZM113.983 53.112C112.984 53.112 112.149 52.7713 111.477 52.09C110.814 51.3993 110.483 50.508 110.483 49.416V49.304C110.483 48.2027 110.819 47.3067 111.491 46.616C112.163 45.916 112.994 45.566 113.983 45.566C114.776 45.566 115.462 45.776 116.041 46.196C116.62 46.616 116.951 47.218 117.035 48.002H116.307C116.223 47.414 115.966 46.966 115.537 46.658C115.117 46.35 114.599 46.196 113.983 46.196C113.199 46.196 112.546 46.4807 112.023 47.05C111.51 47.61 111.253 48.3613 111.253 49.304V49.416C111.253 50.3587 111.51 51.1053 112.023 51.656C112.536 52.2067 113.19 52.482 113.983 52.482C114.618 52.482 115.159 52.3047 115.607 51.95C116.064 51.5953 116.335 51.1007 116.419 50.466H117.105C117.012 51.25 116.676 51.8893 116.097 52.384C115.518 52.8693 114.814 53.112 113.983 53.112ZM123.82 46.308H121.286V53H120.544V46.308H118.01V45.678H123.82V46.308ZM125.33 45.678H127.948C128.657 45.678 129.227 45.8273 129.656 46.126C130.095 46.4247 130.314 46.8913 130.314 47.526V47.568C130.314 48.408 129.885 48.9353 129.026 49.15C130.127 49.3273 130.678 49.9013 130.678 50.872V50.914C130.678 51.6047 130.463 52.1273 130.034 52.482C129.605 52.8273 128.989 53 128.186 53H125.33V45.678ZM126.072 46.28V48.898H127.948C129.003 48.898 129.53 48.464 129.53 47.596V47.554C129.53 46.7047 128.998 46.28 127.934 46.28H126.072ZM126.072 49.5V52.398H128.116C129.301 52.398 129.894 51.9173 129.894 50.956V50.914C129.894 49.9713 129.283 49.5 128.06 49.5H126.072ZM135.503 52.482C136.306 52.482 136.964 52.202 137.477 51.642C138 51.082 138.261 50.3353 138.261 49.402V49.29C138.261 48.338 138 47.5867 137.477 47.036C136.964 46.476 136.306 46.196 135.503 46.196C134.701 46.196 134.038 46.4807 133.515 47.05C132.993 47.61 132.731 48.3567 132.731 49.29V49.402C132.731 50.326 132.988 51.0727 133.501 51.642C134.024 52.202 134.691 52.482 135.503 52.482ZM138.009 52.062C137.328 52.762 136.488 53.112 135.489 53.112C134.491 53.112 133.651 52.762 132.969 52.062C132.297 51.362 131.961 50.4753 131.961 49.402V49.29C131.961 48.2073 132.302 47.316 132.983 46.616C133.665 45.916 134.505 45.566 135.503 45.566C136.511 45.566 137.351 45.9113 138.023 46.602C138.695 47.2927 139.031 48.184 139.031 49.276V49.388C139.031 50.4707 138.691 51.362 138.009 52.062Z"
    fill="#171715" />
  <g clip-path="url(#clip0_11_1052)">
    <path
      d="M48.2291 29.5821C44.0262 29.5821 40.7603 28.3415 38.4314 25.8605C36.1273 23.3794 34.9756 20.0249 34.9756 15.797V15.4932C34.9756 11.4424 36.216 8.1259 38.6972 5.54356C41.1781 2.93591 44.33 1.63208 48.1531 1.63208C51.3935 1.63208 54.0645 2.44223 56.166 4.06252C58.2926 5.6828 59.5078 8.03728 59.8116 11.126H54.6849C54.4063 9.27781 53.7355 7.91069 52.6722 7.02461C51.6341 6.1132 50.1403 5.65749 48.1911 5.65749C45.8111 5.65749 43.8998 6.54357 42.4568 8.31578C41.0137 10.0627 40.2922 12.4424 40.2922 15.4552V15.759C40.2922 18.8223 40.9882 21.2148 42.3808 22.9364C43.7732 24.6326 45.7227 25.4807 48.2291 25.4807C50.1531 25.4807 51.7228 24.9997 52.938 24.0376C54.1532 23.0503 54.9 21.6198 55.1786 19.7464H60.1154C59.7357 22.9617 58.4825 25.4048 56.3558 27.0757C54.2544 28.7466 51.5454 29.5821 48.2291 29.5821Z"
      fill="var(--color-logo-primary)" />
    <path d="M63.6135 0.151001H68.2086V29.2023H63.6135V0.151001Z" fill="var(--color-logo-primary)" />
    <path
      d="M73.312 9.34107H77.9071V29.2023H73.312V9.34107ZM77.4894 5.31566C76.9577 5.82198 76.3121 6.07517 75.5526 6.07517C74.7931 6.07517 74.1475 5.82198 73.6158 5.31566C73.0842 4.80931 72.8184 4.18904 72.8184 3.45486C72.8184 2.69535 73.0842 2.06242 73.6158 1.55608C74.1475 1.04974 74.7931 0.79657 75.5526 0.79657C76.3121 0.79657 76.9577 1.04974 77.4894 1.55608C78.021 2.06242 78.2868 2.69535 78.2868 3.45486C78.2868 4.18904 78.021 4.80931 77.4894 5.31566Z"
      fill="var(--color-logo-primary)" />
    <path
      d="M91.5932 29.582C88.6815 29.582 86.2766 28.6833 84.3778 26.8858C82.5043 25.0629 81.5676 22.6072 81.5676 19.5185V19.2147C81.5676 16.1513 82.517 13.6703 84.4158 11.7715C86.3398 9.87273 88.7322 8.92334 91.5932 8.92334C94.0236 8.92334 96.0868 9.53095 97.7832 10.7462C99.4793 11.936 100.441 13.8095 100.669 16.3665H96.2262C95.8464 13.8602 94.3274 12.607 91.6691 12.607C90.0742 12.607 88.7702 13.1892 87.7576 14.3538C86.7703 15.5184 86.2766 17.1134 86.2766 19.1388V19.4426C86.2766 21.5945 86.7575 23.2401 87.7197 24.3794C88.707 25.4933 90.0614 26.0503 91.7831 26.0503C93.0487 26.0503 94.1248 25.6832 95.011 24.949C95.8969 24.2148 96.4161 23.1642 96.568 21.797H100.783C100.631 24.1009 99.7199 25.9743 98.049 27.4174C96.3781 28.8605 94.2259 29.582 91.5932 29.582Z"
      fill="var(--color-logo-primary)" />
    <path
      d="M104.129 0.151001H108.724V18.0755L115.825 9.34108H120.838L113.129 18.4552L121.484 29.2023H116.167L108.724 19.4426V29.2023H104.129V0.151001Z"
      fill="var(--color-logo-primary)" />
    <path
      d="M124.14 9.34107H128.735V29.2023H124.14V9.34107ZM128.317 5.31566C127.786 5.82198 127.14 6.07517 126.381 6.07517C125.621 6.07517 124.976 5.82198 124.444 5.31566C123.912 4.80931 123.646 4.18904 123.646 3.45486C123.646 2.69535 123.912 2.06242 124.444 1.55608C124.976 1.04974 125.621 0.79657 126.381 0.79657C127.14 0.79657 127.786 1.04974 128.317 1.55608C128.849 2.06242 129.115 2.69535 129.115 3.45486C129.115 4.18904 128.849 4.80931 128.317 5.31566Z"
      fill="var(--color-logo-primary)" />
    <path
      d="M140.522 29.582C137.94 29.582 135.927 29.0251 134.484 27.9111C133.066 26.7718 132.307 25.1389 132.206 23.0123H136.535C136.687 24.0756 137.054 24.8731 137.636 25.4047C138.218 25.9364 139.168 26.2022 140.484 26.2022C142.864 26.2022 144.054 25.3541 144.054 23.6578C144.054 22.873 143.725 22.2907 143.067 21.911C142.433 21.5059 141.345 21.1768 139.801 20.9236C137.142 20.5185 135.282 19.8729 134.218 18.9869C133.155 18.1007 132.623 16.7336 132.623 14.8855C132.623 13.012 133.357 11.5563 134.826 10.5183C136.319 9.455 138.066 8.92334 140.067 8.92334C144.826 8.92334 147.421 10.9234 147.851 14.9235H143.598C143.396 13.9867 143.016 13.3158 142.459 12.9108C141.902 12.4804 141.104 12.2652 140.067 12.2652C139.079 12.2652 138.307 12.4804 137.75 12.9108C137.193 13.3411 136.915 13.9108 136.915 14.6197C136.915 15.3538 137.193 15.8982 137.75 16.2526C138.332 16.607 139.421 16.9108 141.016 17.164C143.598 17.5691 145.484 18.1894 146.674 19.0248C147.864 19.8603 148.459 21.2654 148.459 23.2401C148.459 25.2655 147.776 26.8351 146.408 27.9491C145.041 29.0377 143.079 29.582 140.522 29.582Z"
      fill="var(--color-logo-primary)" />
    <path
      d="M160.613 29.582C157.626 29.582 155.195 28.6706 153.322 26.8478C151.474 25.025 150.55 22.5692 150.55 19.4805V19.1767C150.55 16.1387 151.474 13.6703 153.322 11.7715C155.195 9.87273 157.563 8.92334 160.423 8.92334C163.107 8.92334 165.335 9.7588 167.107 11.4297C168.904 13.1006 169.803 15.607 169.803 18.9489V20.278H155.259C155.335 22.1768 155.828 23.6325 156.74 24.6452C157.676 25.6579 159.006 26.1642 160.727 26.1642C163.411 26.1642 164.93 25.1515 165.284 23.1262H169.727C169.398 25.2275 168.436 26.8351 166.841 27.9491C165.272 29.0377 163.196 29.582 160.613 29.582ZM165.246 17.202C164.993 13.9108 163.386 12.2652 160.423 12.2652C159.056 12.2652 157.917 12.7082 157.006 13.5943C156.119 14.4551 155.563 15.6576 155.335 17.202H165.246Z"
      fill="var(--color-logo-primary)" />
    <path
      d="M23.7347 4.57751H13.6474C12.992 4.57751 12.4607 5.10883 12.4607 5.76425V15.8515C12.4607 16.5069 12.992 17.0382 13.6474 17.0382H23.7347C24.3901 17.0382 24.9214 16.5069 24.9214 15.8515V5.76425C24.9214 5.10883 24.3901 4.57751 23.7347 4.57751Z"
      fill="var(--color-logo-primary)" />
    <path opacity="0.2"
      d="M11.274 17.0382H1.18674C0.53132 17.0382 0 17.5695 0 18.2249V28.3122C0 28.9676 0.53132 29.4989 1.18674 29.4989H11.274C11.9294 29.4989 12.4607 28.9676 12.4607 28.3122V18.2249C12.4607 17.5695 11.9294 17.0382 11.274 17.0382Z"
      fill="var(--color-logo-primary)" />
  </g>
  <defs>
    <clipPath id="clip0_11_1052">
      <rect width="170" height="29.6684" fill="white" transform="translate(0 0.127441)" />
    </clipPath>
  </defs>
</svg>
