<svg width="20" height="20" viewBox="0 0 20 20" fill="none" xmlns="http://www.w3.org/2000/svg">
<g opacity="0.3">
<path d="M8.33348 2.50004H11.6668C12.1251 2.50004 12.5001 2.12504 12.5001 1.66671C12.5001 1.20837 12.1251 0.833374 11.6668 0.833374H8.33348C7.87515 0.833374 7.50015 1.20837 7.50015 1.66671C7.50015 2.12504 7.87515 2.50004 8.33348 2.50004ZM15.8585 6.15837L16.4835 5.53337C16.6376 5.37834 16.7241 5.16863 16.7241 4.95004C16.7241 4.73145 16.6376 4.52175 16.4835 4.36671L16.4752 4.35837C16.3201 4.20428 16.1104 4.1178 15.8918 4.1178C15.6732 4.1178 15.4635 4.20428 15.3085 4.35837L14.6835 4.98337C13.3563 3.91531 11.7038 3.33312 10.0001 3.33337C6.00015 3.33337 2.60015 6.63337 2.50015 10.6334C2.4732 11.635 2.64729 12.632 3.01214 13.5652C3.37698 14.4985 3.92518 15.3491 4.62435 16.0669C5.32351 16.7848 6.15946 17.3551 7.08279 17.7444C8.00612 18.1337 8.99811 18.334 10.0001 18.3334C11.4121 18.3341 12.7955 17.9361 13.9911 17.185C15.1867 16.4339 16.1458 15.3605 16.758 14.0882C17.3702 12.8159 17.6106 11.3965 17.4514 9.99358C17.2923 8.59066 16.7401 7.26122 15.8585 6.15837ZM10.8335 10.8334C10.8335 11.2917 10.4585 11.6667 10.0001 11.6667C9.54182 11.6667 9.16682 11.2917 9.16682 10.8334V7.50004C9.16682 7.04171 9.54182 6.66671 10.0001 6.66671C10.4585 6.66671 10.8335 7.04171 10.8335 7.50004V10.8334Z" fill="#171715"/>
</g>
</svg>
